<svg width="410" height="412" viewBox="0 0 410 412" fill="none" xmlns="http://www.w3.org/2000/svg">
<rect width="410" height="412" fill="white"/>
<ellipse cx="202.77" cy="211.382" rx="160.77" ry="165.286" fill="#34196C"/>
<path d="M277.834 254.591C277.939 252.056 277.173 249.571 275.604 247.578C271.305 242.116 261.629 230.24 249.998 218.608C238.807 224.345 238.074 237.778 241.869 249.768C250.984 256.32 262.615 263.59 269.961 268.066C273.183 270.029 277.283 267.8 277.44 264.03L277.834 254.591Z" fill="#FFCB17"/>
<mask id="mask0" mask-type="alpha" maskUnits="userSpaceOnUse" x="148" y="19" width="113" height="269">
<path d="M204.457 19C186.394 19 142.168 113.626 149.362 186.093C154.098 233.799 160.867 263.461 174.695 280.239C177.939 284.175 182.963 285.977 188.062 286.123L219.828 287.036C224.693 287.176 229.605 285.83 232.958 282.303C248.111 266.365 254.641 235.569 259.553 186.093C266.747 113.626 222.521 19 204.457 19Z" fill="#C4C4C4"/>
</mask>
<g mask="url(#mask0)">
<path d="M259.553 186.093C251.881 263.368 234.886 298.993 204.457 298.993C174.029 298.993 157.034 263.368 149.362 186.093C142.168 113.626 186.394 19 204.457 19C222.521 19 266.747 113.626 259.553 186.093Z" fill="#FFCB17"/>
<ellipse cx="204.577" cy="211.382" rx="160.77" ry="165.286" fill="white"/>
<path d="M213.652 46.0299C213.616 45.7562 213.364 45.564 213.091 45.6005C212.817 45.6371 212.625 45.8886 212.661 46.1623L213.652 46.0299ZM219.479 138.223L218.979 138.223L219.479 138.223ZM213.157 46.0961C212.661 46.1623 212.661 46.1625 212.661 46.1628C212.661 46.1632 212.661 46.1637 212.661 46.1644C212.662 46.1658 212.662 46.1679 212.662 46.1707C212.663 46.1764 212.664 46.185 212.666 46.1963C212.669 46.2191 212.673 46.2532 212.679 46.2985C212.691 46.3891 212.709 46.5243 212.732 46.7028C212.778 47.0597 212.846 47.5892 212.932 48.2793C213.105 49.6594 213.352 51.6814 213.648 54.2481C214.24 59.3816 215.03 66.6932 215.82 75.4043C217.4 92.8282 218.979 115.843 218.979 138.223L219.979 138.223C219.979 115.801 218.397 92.7533 216.816 75.314C216.025 66.5935 215.234 59.2736 214.641 54.1335C214.345 51.5634 214.098 49.5381 213.925 48.1551C213.838 47.4636 213.77 46.9326 213.724 46.5743C213.7 46.3952 213.683 46.2593 213.671 46.168C213.665 46.1224 213.66 46.088 213.657 46.0649C213.655 46.0533 213.654 46.0446 213.654 46.0388C213.653 46.0359 213.653 46.0337 213.653 46.0322C213.653 46.0315 213.652 46.0309 213.652 46.0305C213.652 46.0301 213.652 46.0299 213.157 46.0961ZM218.979 138.223C218.979 158.991 218.641 176.486 218.302 188.788C218.133 194.94 217.963 199.793 217.836 203.107C217.773 204.765 217.72 206.038 217.683 206.896C217.665 207.325 217.65 207.651 217.64 207.869C217.635 207.978 217.631 208.06 217.629 208.115C217.628 208.142 217.627 208.163 217.626 208.177C217.626 208.184 217.625 208.189 217.625 208.192C217.625 208.194 217.625 208.195 217.625 208.196C217.625 208.197 217.625 208.197 217.625 208.197C217.625 208.197 217.625 208.197 218.124 208.221C218.624 208.245 218.624 208.245 218.624 208.245C218.624 208.244 218.624 208.244 218.624 208.244C218.624 208.243 218.624 208.241 218.624 208.24C218.624 208.236 218.624 208.231 218.625 208.224C218.625 208.21 218.626 208.189 218.628 208.161C218.63 208.106 218.634 208.024 218.639 207.914C218.649 207.695 218.664 207.369 218.682 206.939C218.719 206.079 218.772 204.805 218.836 203.146C218.963 199.828 219.132 194.971 219.302 188.816C219.64 176.506 219.979 159.002 219.979 138.223L218.979 138.223Z" fill="black"/>
<path d="M152.191 225.382C152.191 225.382 182.448 211.834 214.512 214.995C246.575 218.156 256.059 228.543 256.059 228.543" stroke="black"/>
</g>
<path d="M163.481 260.155C171.61 253.381 188.168 252.026 204.577 252.026C220.985 252.026 236.64 254.284 245.221 261.962C242.998 268.518 239.172 275.226 236.015 280.15C232.895 285.015 227.348 287.589 221.572 287.396L185.787 286.203C180.004 286.011 174.642 283.065 171.79 278.03C169.018 273.137 165.657 266.574 163.481 260.155Z" fill="#FFCB17"/>
<ellipse cx="217.683" cy="215.528" rx="6.50279" ry="22.8042" transform="rotate(3 217.683 215.528)" fill="#FFCB17"/>
<path d="M176.577 258.712C176.577 258.712 179.105 265.068 181.997 270.453C184.83 275.73 189.621 281.531 189.621 281.531" stroke="black" stroke-linecap="round"/>
<path d="M203.673 252.026C203.673 252.026 203.673 259.252 203.673 266.478C203.673 272.467 203.222 284.542 203.222 284.542" stroke="black" stroke-linecap="round"/>
<path d="M229.866 257.446C229.866 257.446 229.335 265.057 226.705 271.445C223.544 279.122 217.673 285.445 217.673 285.445" stroke="black" stroke-linecap="round"/>
<path d="M124.191 249.7C124.191 246.847 125.293 244.113 127.283 242.068C132.071 237.148 141.903 227.089 153.094 215.898C164.285 221.636 165.017 235.069 161.223 247.059C151.962 253.715 139.363 261.113 131.508 265.568C128.215 267.436 124.191 265.043 124.191 261.257V249.7Z" fill="#FFCB17"/>
<ellipse rx="24.3865" ry="28.9025" transform="matrix(0.999229 -0.0392598 0.0165799 0.999863 218.585 93.0046)" fill="#EFEFEF"/>
<ellipse rx="18.5157" ry="21.2253" transform="matrix(0.999229 -0.0392598 0.0165799 0.999863 224.444 92.3226)" fill="#C4C4C4" fill-opacity="0.7"/>
<mask id="mask1" mask-type="alpha" maskUnits="userSpaceOnUse" x="205" y="71" width="38" height="43">
<ellipse rx="18.5157" ry="21.2253" transform="matrix(0.999229 -0.0392598 0.0165799 0.999863 224.444 92.3226)" fill="white" fill-opacity="0.7"/>
</mask>
<g mask="url(#mask1)">
<ellipse rx="20.3221" ry="22.5801" transform="matrix(0.999229 -0.0392598 0.0165799 0.999863 215.456 94.9349)" fill="#36BBFA"/>
</g>
<path d="M183.803 289.846C183.803 284.973 185.582 280.117 189.93 277.919C193.35 276.19 198.218 274.606 204.576 274.606C210.935 274.606 215.803 276.19 219.222 277.919C223.571 280.117 225.35 284.973 225.35 289.846V323.831H183.803V289.846Z" fill="#EAD9FF"/>
<path fill-rule="evenodd" clip-rule="evenodd" d="M185.014 336.829L185.094 336.81L185.23 336.778L185.178 336.705C185.152 336.669 185.127 336.633 185.102 336.597C185.073 336.675 185.043 336.752 185.014 336.829ZM367.969 384.797H225.671C225.332 384.351 225.011 383.896 224.711 383.433C223.63 383.919 222.511 384.375 221.358 384.797H178.643C178.542 384.76 178.442 384.723 178.341 384.686C178.317 384.723 178.292 384.76 178.267 384.797H55.5483C56.377 375.564 65.612 368.106 77.4193 366.903C81.9229 350.242 96.5095 338.721 112.539 340.275C115.628 340.575 118.57 341.34 121.317 342.504C125.243 335.888 132.083 331.508 139.864 331.508C140.115 331.508 140.366 331.513 140.615 331.522C140.506 330.629 140.449 329.72 140.449 328.799C140.449 316.328 150.761 306.219 163.481 306.219C172.565 306.219 180.42 311.374 184.169 318.864C187.793 312.455 195.569 308.025 204.577 308.025C213.756 308.025 221.656 312.626 225.186 319.232C228.721 312.146 237.571 307.122 247.93 307.122C261.027 307.122 271.713 315.152 272.292 325.227C272.728 325.2 273.168 325.186 273.611 325.186C280.799 325.186 287.075 328.818 290.432 334.218C294.421 332.49 299 331.508 303.869 331.508C319.332 331.508 331.868 341.415 331.868 353.637C331.868 356.414 331.221 359.071 330.039 361.52C331.523 361.384 333.038 361.314 334.577 361.314C353.034 361.314 367.996 371.423 367.996 383.894C367.996 384.196 367.987 384.498 367.969 384.797Z" fill="#EAD9FF"/>
<path d="M289.406 379.429C287.954 379.429 286.85 378.877 286.094 377.773C285.338 376.669 284.96 375.061 284.96 372.949C284.96 370.825 285.338 369.211 286.094 368.107C286.85 367.003 287.954 366.451 289.406 366.451C290.858 366.451 291.962 367.003 292.718 368.107C293.474 369.199 293.852 370.807 293.852 372.931C293.852 375.055 293.474 376.669 292.718 377.773C291.962 378.877 290.858 379.429 289.406 379.429ZM289.406 378.187C290.414 378.187 291.158 377.761 291.638 376.909C292.118 376.057 292.358 374.731 292.358 372.931C292.358 371.119 292.118 369.793 291.638 368.953C291.17 368.113 290.426 367.693 289.406 367.693C288.398 367.693 287.654 368.119 287.174 368.971C286.694 369.811 286.454 371.131 286.454 372.931C286.454 374.731 286.694 376.057 287.174 376.909C287.654 377.761 288.398 378.187 289.406 378.187Z" fill="#34196C"/>
<path d="M116.749 361.412C115.491 362.138 114.259 362.212 113.052 361.634C111.846 361.056 110.714 359.852 109.658 358.023C108.596 356.184 108.117 354.597 108.219 353.263C108.322 351.929 109.002 350.899 110.26 350.173C111.517 349.447 112.749 349.373 113.956 349.951C115.157 350.519 116.288 351.722 117.35 353.562C118.412 355.401 118.892 356.988 118.789 358.322C118.686 359.656 118.006 360.686 116.749 361.412ZM116.128 360.336C117 359.832 117.432 359.092 117.422 358.114C117.411 357.136 116.956 355.868 116.056 354.309C115.15 352.739 114.279 351.711 113.444 351.224C112.618 350.73 111.764 350.738 110.881 351.248C110.008 351.752 109.576 352.493 109.587 353.471C109.591 354.439 110.043 355.702 110.943 357.261C111.843 358.82 112.714 359.848 113.556 360.346C114.397 360.844 115.255 360.84 116.128 360.336Z" fill="#34196C"/>
<path d="M334.267 377.818C332.823 377.97 331.667 377.536 330.8 376.517C329.933 375.498 329.389 373.938 329.168 371.838C328.946 369.726 329.153 368.081 329.79 366.904C330.426 365.727 331.466 365.063 332.91 364.911C334.354 364.759 335.51 365.193 336.377 366.212C337.243 367.219 337.787 368.778 338.009 370.891C338.231 373.003 338.024 374.648 337.388 375.825C336.751 377.002 335.711 377.666 334.267 377.818ZM334.137 376.583C335.14 376.477 335.835 375.976 336.223 375.078C336.612 374.181 336.712 372.837 336.524 371.047C336.334 369.245 335.957 367.951 335.392 367.166C334.838 366.379 334.055 366.039 333.04 366.146C332.038 366.251 331.342 366.753 330.954 367.65C330.564 368.536 330.464 369.874 330.652 371.664C330.84 373.454 331.217 374.748 331.784 375.545C332.35 376.342 333.135 376.688 334.137 376.583Z" fill="#34196C"/>
<path d="M196.253 376.747C194.889 376.25 194.04 375.354 193.708 374.058C193.375 372.762 193.57 371.122 194.292 369.137C195.018 367.141 195.926 365.754 197.014 364.975C198.102 364.196 199.328 364.055 200.692 364.551C202.057 365.048 202.905 365.944 203.238 367.24C203.575 368.525 203.38 370.165 202.654 372.161C201.927 374.157 201.02 375.545 199.932 376.323C198.844 377.102 197.618 377.243 196.253 376.747ZM196.678 375.58C197.625 375.924 198.47 375.779 199.213 375.142C199.955 374.506 200.634 373.342 201.25 371.65C201.87 369.948 202.098 368.619 201.934 367.666C201.781 366.717 201.226 366.067 200.267 365.719C199.32 365.374 198.475 365.52 197.733 366.156C196.995 366.781 196.318 367.94 195.702 369.631C195.086 371.322 194.858 372.651 195.018 373.615C195.178 374.58 195.731 375.235 196.678 375.58Z" fill="#34196C"/>
<path d="M234.824 372.621C233.459 373.117 232.233 372.976 231.145 372.197C230.057 371.418 229.152 370.037 228.43 368.052C227.703 366.056 227.506 364.41 227.839 363.114C228.172 361.818 229.021 360.922 230.385 360.425C231.75 359.929 232.976 360.07 234.064 360.849C235.148 361.616 236.053 362.998 236.779 364.994C237.506 366.99 237.703 368.636 237.37 369.932C237.037 371.228 236.188 372.124 234.824 372.621ZM234.399 371.454C235.346 371.109 235.9 370.454 236.059 369.489C236.219 368.524 235.991 367.196 235.375 365.505C234.756 363.802 234.077 362.638 233.338 362.013C232.611 361.384 231.768 361.244 230.81 361.592C229.863 361.937 229.309 362.592 229.15 363.557C228.986 364.51 229.212 365.833 229.827 367.524C230.443 369.216 231.122 370.38 231.865 371.016C232.607 371.652 233.452 371.798 234.399 371.454Z" fill="#34196C"/>
<path d="M277.515 359.48C277.68 359.341 277.844 359.275 278.005 359.28C278.166 359.286 278.309 359.362 278.432 359.509C278.563 359.665 278.618 359.824 278.595 359.983C278.582 360.136 278.488 360.285 278.313 360.431L273.749 364.261C273.574 364.408 273.406 364.478 273.245 364.473C273.093 364.459 272.951 364.375 272.82 364.218C272.697 364.071 272.646 363.918 272.669 363.758C272.691 363.598 272.785 363.449 272.951 363.31L274.661 361.875L268.459 354.484L267.778 356.724C267.743 356.832 267.688 356.917 267.615 356.979C267.486 357.086 267.321 357.123 267.12 357.089C266.927 357.046 266.773 356.956 266.658 356.818C266.496 356.625 266.454 356.425 266.531 356.219L267.482 353.096C267.553 352.863 267.672 352.678 267.837 352.539C267.993 352.408 268.164 352.35 268.35 352.367C268.536 352.383 268.707 352.483 268.861 352.667L275.791 360.926L277.515 359.48Z" fill="#34196C"/>
<path d="M249.556 356.371C249.721 356.232 249.885 356.166 250.046 356.171C250.207 356.177 250.35 356.253 250.473 356.4C250.604 356.557 250.659 356.715 250.636 356.875C250.623 357.027 250.529 357.176 250.354 357.323L245.79 361.152C245.616 361.299 245.448 361.369 245.286 361.364C245.134 361.35 244.992 361.266 244.861 361.109C244.738 360.962 244.687 360.809 244.71 360.649C244.732 360.489 244.826 360.34 244.992 360.201L246.702 358.766L240.5 351.375L239.819 353.616C239.784 353.723 239.729 353.808 239.656 353.87C239.527 353.978 239.362 354.014 239.161 353.98C238.968 353.937 238.814 353.847 238.699 353.709C238.537 353.516 238.495 353.317 238.572 353.11L239.523 349.987C239.594 349.754 239.713 349.569 239.878 349.43C240.034 349.299 240.205 349.241 240.391 349.258C240.577 349.274 240.748 349.374 240.902 349.558L247.832 357.817L249.556 356.371Z" fill="#34196C"/>
<path d="M219.114 333.371C219.279 333.232 219.442 333.166 219.604 333.171C219.765 333.177 219.907 333.253 220.031 333.4C220.162 333.557 220.216 333.715 220.194 333.875C220.181 334.027 220.087 334.176 219.912 334.323L215.348 338.152C215.173 338.299 215.005 338.369 214.844 338.364C214.692 338.35 214.55 338.266 214.419 338.109C214.295 337.962 214.245 337.809 214.267 337.649C214.29 337.489 214.384 337.34 214.549 337.201L216.259 335.766L210.058 328.375L209.376 330.616C209.341 330.723 209.287 330.808 209.213 330.87C209.085 330.978 208.92 331.014 208.718 330.98C208.526 330.937 208.372 330.847 208.256 330.709C208.094 330.516 208.052 330.317 208.13 330.11L209.08 326.987C209.152 326.754 209.27 326.569 209.436 326.43C209.592 326.299 209.763 326.241 209.949 326.258C210.135 326.274 210.305 326.374 210.459 326.558L217.39 334.817L219.114 333.371Z" fill="#34196C"/>
<path d="M186.688 336.545C186.875 336.437 187.048 336.4 187.206 336.433C187.364 336.467 187.491 336.567 187.587 336.733C187.689 336.91 187.715 337.075 187.665 337.228C187.625 337.376 187.507 337.507 187.309 337.621L182.149 340.6C181.952 340.714 181.774 340.754 181.616 340.72C181.469 340.681 181.344 340.573 181.242 340.396C181.146 340.23 181.123 340.07 181.173 339.916C181.223 339.763 181.341 339.632 181.528 339.524L183.461 338.408L178.637 330.053L177.577 332.14C177.524 332.24 177.456 332.314 177.373 332.362C177.227 332.446 177.058 332.454 176.866 332.385C176.684 332.31 176.548 332.194 176.458 332.038C176.332 331.82 176.325 331.616 176.438 331.427L177.916 328.515C178.027 328.299 178.176 328.137 178.363 328.029C178.539 327.927 178.718 327.9 178.898 327.948C179.078 327.997 179.229 328.125 179.349 328.333L184.74 337.67L186.688 336.545Z" fill="#34196C"/>
<path d="M157.831 368.15C158.018 368.042 158.19 368.005 158.348 368.039C158.506 368.072 158.633 368.172 158.729 368.338C158.831 368.515 158.857 368.68 158.807 368.834C158.768 368.981 158.649 369.112 158.452 369.226L153.292 372.205C153.095 372.319 152.917 372.359 152.759 372.326C152.611 372.286 152.487 372.178 152.385 372.001C152.289 371.835 152.266 371.675 152.315 371.522C152.365 371.368 152.484 371.237 152.671 371.129L154.604 370.013L149.78 361.658L148.72 363.746C148.667 363.846 148.599 363.92 148.515 363.968C148.37 364.052 148.201 364.059 148.009 363.99C147.827 363.915 147.691 363.799 147.601 363.643C147.475 363.425 147.468 363.221 147.58 363.032L149.059 360.121C149.169 359.904 149.318 359.742 149.505 359.634C149.682 359.532 149.86 359.505 150.041 359.554C150.221 359.602 150.371 359.73 150.491 359.938L155.882 369.275L157.831 368.15Z" fill="#34196C"/>
<path d="M304.776 348.436C304.85 348.233 304.958 348.093 305.101 348.018C305.243 347.942 305.405 347.937 305.585 348.002C305.777 348.072 305.903 348.182 305.964 348.332C306.028 348.47 306.021 348.646 305.943 348.861L303.906 354.459C303.828 354.674 303.717 354.819 303.575 354.894C303.436 354.959 303.271 354.956 303.08 354.887C302.899 354.821 302.779 354.713 302.718 354.563C302.658 354.414 302.665 354.237 302.739 354.034L303.502 351.937L294.436 348.637L294.966 350.918C294.989 351.029 294.985 351.129 294.952 351.219C294.894 351.377 294.77 351.492 294.578 351.562C294.39 351.622 294.212 351.621 294.043 351.559C293.806 351.473 293.67 351.321 293.634 351.104L292.895 347.923C292.841 347.686 292.851 347.466 292.924 347.264C292.994 347.072 293.114 346.937 293.283 346.858C293.452 346.779 293.649 346.78 293.875 346.862L304.007 350.55L304.776 348.436Z" fill="#34196C"/>
<path d="M181.858 360.415C181.932 360.212 182.04 360.073 182.182 359.997C182.325 359.921 182.486 359.916 182.667 359.982C182.859 360.052 182.985 360.161 183.045 360.311C183.11 360.449 183.103 360.626 183.025 360.84L180.987 366.439C180.909 366.653 180.799 366.798 180.656 366.874C180.518 366.938 180.353 366.936 180.161 366.866C179.981 366.8 179.86 366.693 179.8 366.543C179.739 366.393 179.746 366.217 179.82 366.014L180.583 363.917L171.517 360.617L172.047 362.898C172.071 363.008 172.066 363.109 172.033 363.199C171.976 363.357 171.851 363.471 171.659 363.542C171.472 363.601 171.293 363.6 171.124 363.539C170.888 363.452 170.751 363.301 170.715 363.083L169.977 359.903C169.922 359.666 169.932 359.446 170.006 359.243C170.076 359.051 170.195 358.916 170.364 358.837C170.534 358.758 170.731 358.76 170.957 358.842L181.088 362.53L181.858 360.415Z" fill="#34196C"/>
<path d="M143.382 349.422C143.456 349.219 143.564 349.08 143.706 349.004C143.849 348.928 144.01 348.923 144.191 348.989C144.382 349.058 144.509 349.168 144.569 349.318C144.634 349.456 144.627 349.633 144.549 349.847L142.511 355.446C142.433 355.66 142.323 355.805 142.18 355.881C142.042 355.945 141.877 355.943 141.685 355.873C141.505 355.807 141.384 355.7 141.324 355.55C141.263 355.4 141.27 355.224 141.344 355.021L142.107 352.923L133.041 349.624L133.571 351.904C133.595 352.015 133.59 352.116 133.557 352.206C133.5 352.364 133.375 352.478 133.183 352.549C132.996 352.608 132.817 352.607 132.648 352.545C132.411 352.459 132.275 352.307 132.239 352.09L131.501 348.91C131.446 348.673 131.456 348.453 131.53 348.25C131.6 348.058 131.719 347.923 131.888 347.844C132.058 347.765 132.255 347.767 132.48 347.849L142.612 351.536L143.382 349.422Z" fill="#34196C"/>
<path d="M272.776 333.436C272.85 333.233 272.958 333.093 273.101 333.018C273.243 332.942 273.405 332.937 273.585 333.002C273.777 333.072 273.903 333.182 273.964 333.332C274.028 333.47 274.021 333.646 273.943 333.861L271.906 339.459C271.828 339.674 271.717 339.819 271.575 339.894C271.436 339.959 271.271 339.956 271.08 339.887C270.899 339.821 270.779 339.713 270.718 339.563C270.658 339.414 270.665 339.237 270.739 339.034L271.502 336.937L262.436 333.637L262.966 335.918C262.989 336.029 262.985 336.129 262.952 336.219C262.894 336.377 262.77 336.492 262.578 336.562C262.39 336.622 262.212 336.621 262.043 336.559C261.806 336.473 261.67 336.321 261.634 336.104L260.895 332.923C260.841 332.686 260.851 332.466 260.924 332.264C260.994 332.072 261.114 331.937 261.283 331.858C261.452 331.779 261.649 331.78 261.875 331.862L272.007 335.55L272.776 333.436Z" fill="#34196C"/>
<path d="M262.714 375.888C261.456 376.614 260.224 376.688 259.018 376.11C257.811 375.532 256.68 374.328 255.624 372.499C254.562 370.66 254.082 369.073 254.185 367.739C254.287 366.405 254.967 365.375 256.225 364.649C257.482 363.923 258.714 363.849 259.921 364.427C261.122 364.995 262.253 366.198 263.315 368.038C264.377 369.877 264.857 371.464 264.754 372.798C264.651 374.132 263.971 375.162 262.714 375.888ZM262.093 374.813C262.966 374.309 263.397 373.568 263.387 372.59C263.377 371.612 262.921 370.344 262.021 368.785C261.115 367.215 260.245 366.187 259.409 365.7C258.584 365.206 257.729 365.214 256.846 365.724C255.973 366.228 255.542 366.969 255.552 367.947C255.556 368.915 256.008 370.178 256.908 371.737C257.808 373.296 258.679 374.324 259.521 374.822C260.363 375.32 261.22 375.317 262.093 374.813Z" fill="#34196C"/>
<path d="M98.4 378.055C96.948 378.055 95.844 377.503 95.088 376.399C94.332 375.295 93.954 373.687 93.954 371.575C93.954 369.451 94.332 367.837 95.088 366.733C95.844 365.629 96.948 365.077 98.4 365.077C99.852 365.077 100.956 365.629 101.712 366.733C102.468 367.825 102.846 369.433 102.846 371.557C102.846 373.681 102.468 375.295 101.712 376.399C100.956 377.503 99.852 378.055 98.4 378.055ZM98.4 376.813C99.408 376.813 100.152 376.387 100.632 375.535C101.112 374.683 101.352 373.357 101.352 371.557C101.352 369.745 101.112 368.419 100.632 367.579C100.164 366.739 99.42 366.319 98.4 366.319C97.392 366.319 96.648 366.745 96.168 367.597C95.688 368.437 95.448 369.757 95.448 371.557C95.448 373.357 95.688 374.683 96.168 375.535C96.648 376.387 97.392 376.813 98.4 376.813Z" fill="#34196C"/>
<path d="M132.387 377.69C130.957 377.942 129.774 377.59 128.838 376.634C127.902 375.679 127.25 374.161 126.883 372.081C126.515 369.989 126.607 368.334 127.159 367.115C127.712 365.897 128.704 365.161 130.133 364.909C131.563 364.657 132.747 365.009 133.683 365.965C134.617 366.909 135.268 368.427 135.637 370.519C136.006 372.611 135.914 374.266 135.361 375.484C134.808 376.703 133.817 377.438 132.387 377.69ZM132.171 376.467C133.164 376.292 133.823 375.743 134.148 374.821C134.472 373.898 134.478 372.551 134.166 370.778C133.851 368.994 133.385 367.73 132.766 366.986C132.159 366.24 131.354 365.955 130.349 366.132C129.356 366.308 128.698 366.856 128.373 367.779C128.046 368.689 128.039 370.031 128.352 371.804C128.664 373.576 129.131 374.84 129.751 375.596C130.372 376.352 131.179 376.642 132.171 376.467Z" fill="#34196C"/>
<path d="M211.469 357.153C210.039 357.405 208.856 357.053 207.919 356.097C206.983 355.141 206.332 353.623 205.965 351.544C205.596 349.452 205.688 347.797 206.241 346.578C206.794 345.36 207.785 344.624 209.215 344.372C210.645 344.12 211.828 344.472 212.764 345.428C213.698 346.372 214.35 347.89 214.719 349.982C215.088 352.073 214.996 353.729 214.443 354.947C213.89 356.166 212.899 356.901 211.469 357.153ZM211.253 355.93C212.246 355.755 212.904 355.206 213.229 354.284C213.554 353.361 213.56 352.014 213.247 350.241C212.933 348.457 212.466 347.193 211.848 346.449C211.241 345.703 210.435 345.418 209.431 345.595C208.438 345.77 207.779 346.319 207.455 347.242C207.128 348.152 207.121 349.494 207.433 351.266C207.746 353.039 208.212 354.303 208.833 355.059C209.454 355.815 210.26 356.105 211.253 355.93Z" fill="#34196C"/>
<path d="M155.812 336.897C154.447 336.4 153.599 335.504 153.266 334.208C152.933 332.912 153.128 331.271 153.85 329.287C154.576 327.291 155.484 325.904 156.572 325.125C157.66 324.346 158.886 324.205 160.25 324.701C161.615 325.198 162.463 326.094 162.796 327.39C163.133 328.675 162.938 330.315 162.212 332.311C161.485 334.307 160.578 335.694 159.49 336.473C158.402 337.252 157.176 337.393 155.812 336.897ZM156.236 335.73C157.184 336.074 158.028 335.929 158.771 335.292C159.513 334.656 160.192 333.492 160.808 331.8C161.428 330.097 161.656 328.769 161.492 327.816C161.34 326.866 160.784 326.217 159.826 325.868C158.878 325.524 158.034 325.67 157.291 326.306C156.553 326.931 155.876 328.089 155.26 329.781C154.644 331.472 154.416 332.8 154.576 333.765C154.736 334.73 155.289 335.385 156.236 335.73Z" fill="#34196C"/>
<path d="M248.469 339.153C247.039 339.405 245.856 339.053 244.919 338.097C243.983 337.141 243.332 335.623 242.965 333.544C242.596 331.452 242.688 329.797 243.241 328.578C243.794 327.36 244.785 326.624 246.215 326.372C247.645 326.12 248.828 326.472 249.764 327.428C250.698 328.372 251.35 329.89 251.719 331.982C252.088 334.073 251.996 335.729 251.443 336.947C250.89 338.166 249.899 338.901 248.469 339.153ZM248.253 337.93C249.246 337.755 249.904 337.206 250.229 336.284C250.554 335.361 250.56 334.014 250.247 332.241C249.933 330.457 249.466 329.193 248.848 328.449C248.241 327.703 247.435 327.418 246.431 327.595C245.438 327.77 244.779 328.319 244.455 329.242C244.128 330.152 244.121 331.494 244.433 333.266C244.746 335.039 245.212 336.303 245.833 337.059C246.454 337.815 247.26 338.105 248.253 337.93Z" fill="#34196C"/>
</svg>
