<svg width="192" height="218" viewBox="0 0 192 218" fill="none" xmlns="http://www.w3.org/2000/svg">
<g clip-path="url(#clip0)">
<path d="M96.1559 26.0759L168.48 67.923V151.617L96.1559 193.464L23.8318 151.617V67.923L96.1559 26.0759Z" fill="white" fill-opacity="0.25"/>
<path d="M96.2071 193.201L111.108 184.669L110.362 152.055L140.645 134.547L154.43 126.548V159.608L168.585 151.343V67.6277L154.43 75.8925V109.485L110.362 134.955V119.616V100.954L96.2071 109.485V193.201Z" fill="white"/>
<path d="M96.2071 109.485L81.3058 101.487V119.616V154.525L38.7308 76.1591L23.8295 67.6277V151.343L38.7308 160.006V108.918L53.0999 134.484L81.3058 184.669L96.2071 193.201V109.485Z" fill="white"/>
<path d="M96.2071 109.485L110.362 100.954L96.2071 92.9555L81.3058 101.487L96.2071 109.485Z" fill="white"/>
<path d="M154.43 109.485V75.8925L140.645 67.361V102.553L154.43 109.485Z" fill="white"/>
<path d="M110.362 134.955L154.43 109.485L140.645 102.553L110.362 119.616V134.955Z" fill="white"/>
<path d="M154.43 75.8925L168.585 67.6277L154.43 59.3628L140.645 67.361L154.43 75.8925Z" fill="white"/>
<path d="M154.43 159.608V126.548L140.645 134.547V152.409L154.43 159.608Z" fill="white"/>
<path d="M53.632 67.6277L38.7308 76.1591L81.3058 154.525V119.616L53.632 67.6277Z" fill="white"/>
<path d="M23.8295 67.6277L38.7308 76.1591L53.632 67.6277L38.7308 59.0962L23.8295 67.6277Z" fill="white"/>
<path d="M38.7308 108.918V160.006L53.0999 151.609V134.484L38.7308 108.918Z" fill="white"/>
<path d="M174.692 160.401L96.1949 205.686L17.9636 160.401L6.52162 167.06L96.1949 217.407L186.134 166.794L174.692 160.401Z" fill="#FFCB17"/>
<path d="M101.715 13.8116L180.327 59.3052L180.267 149.807L191.749 156.4L191.749 54.051L101.715 0.753797L101.715 13.8116Z" fill="#FFCB17"/>
<path d="M11.7906 149.807L11.8639 59.0744L90.1121 13.8115L90.1121 0.620459L0.539329 53.518L0.539322 156.533L11.7906 149.807Z" fill="#FFCB17"/>
<path d="M154.43 109.485V75.8925L140.645 67.361V102.553L154.43 109.485Z" fill="#343041"/>
<path d="M110.362 134.955L154.43 109.485L140.645 102.553L110.362 119.616V134.955Z" fill="#343041"/>
<path d="M154.43 159.608V126.548L140.645 134.547V152.409L154.43 159.608Z" fill="#343041"/>
<path d="M53.632 67.6277L38.7308 76.1591L81.3058 154.525V119.616L53.632 67.6277Z" fill="#343041"/>
<path d="M38.7308 108.918V160.006L53.0999 151.609V134.484L38.7308 108.918Z" fill="#343041"/>
<path d="M101.148 76.2185V74.7157C101.148 72.0743 102.22 69.5367 104.089 67.7537C106.427 65.5229 107.714 62.514 107.714 59.2815C107.714 52.8276 102.471 47.5772 96.0256 47.5772C95.5858 47.5772 95.1391 47.6017 94.6982 47.6507C89.1139 48.269 84.6678 52.9831 84.3556 58.6163C84.1674 62.0134 85.4544 65.3173 87.887 67.6802C89.8037 69.542 90.903 72.1057 90.903 74.7141V76.218C90.903 77.8151 92.2002 79.114 93.7951 79.114H98.2556C99.8506 79.115 101.148 77.8156 101.148 76.2185V76.2185ZM99.0209 76.2185C99.0209 76.6408 98.6774 76.9843 98.2562 76.9843H93.7957C93.3739 76.9843 93.0309 76.6403 93.0309 76.2185V74.7146C93.0309 71.5337 91.696 68.413 89.3687 66.1518C87.3791 64.2192 86.3261 61.5155 86.4803 58.7351C86.7356 54.1286 90.3691 50.274 94.9327 49.7686C95.2965 49.7282 95.6645 49.7079 96.0267 49.7079C101.299 49.7079 105.588 54.0024 105.588 59.282C105.588 61.9261 104.535 64.387 102.623 66.212C100.335 68.3949 99.022 71.4943 99.022 74.7162V76.2185H99.0209Z" fill="#FFCB17"/>
<path d="M99.4872 80.1671H92.5638C92.1229 80.1671 91.7661 80.5244 91.7661 80.9659C91.7661 81.4074 92.1229 81.7647 92.5638 81.7647H99.4878C99.9287 81.7647 100.286 81.4074 100.286 80.9659C100.286 80.5244 99.9281 80.1671 99.4872 80.1671Z" fill="#FFCB17"/>
<path d="M100.285 83.4899C100.285 83.0484 99.9281 82.691 99.4872 82.691H92.5638C92.1229 82.691 91.7661 83.0484 91.7661 83.4899C91.7661 83.9313 92.1229 84.2887 92.5638 84.2887H99.4878C99.9281 84.2887 100.285 83.9308 100.285 83.4899Z" fill="#FFCB17"/>
<path d="M77.2693 59.2624H81.866C82.3069 59.2624 82.6637 58.905 82.6637 58.4636C82.6637 58.0221 82.3069 57.6647 81.866 57.6647H77.2693C76.8284 57.6647 76.4716 58.0221 76.4716 58.4636C76.4716 58.905 76.8284 59.2624 77.2693 59.2624Z" fill="#FFCB17"/>
<path d="M115.58 58.4636C115.58 58.0221 115.223 57.6647 114.782 57.6647H110.185C109.744 57.6647 109.387 58.0221 109.387 58.4636C109.387 58.905 109.744 59.2624 110.185 59.2624H114.782C115.223 59.2624 115.58 58.905 115.58 58.4636Z" fill="#FFCB17"/>
<path d="M95.2275 39.6823V44.2851C95.2275 44.7266 95.5844 45.0839 96.0253 45.0839C96.4661 45.0839 96.823 44.7266 96.823 44.2851V39.6823C96.823 39.2409 96.4661 38.8835 96.0253 38.8835C95.5844 38.8835 95.2275 39.2409 95.2275 39.6823Z" fill="#FFCB17"/>
<path d="M108.724 44.6186L105.474 47.873C105.163 48.1845 105.163 48.691 105.474 49.0025C105.63 49.1585 105.834 49.2363 106.039 49.2363C106.243 49.2363 106.447 49.1585 106.603 49.0025L109.853 45.7481C110.164 45.4366 110.164 44.9301 109.853 44.6186C109.541 44.3065 109.036 44.3065 108.724 44.6186V44.6186Z" fill="#FFCB17"/>
<path d="M86.5769 67.9247C86.2652 67.6126 85.7605 67.6126 85.4489 67.9247L82.1988 71.1791C81.8872 71.4906 81.8872 71.9965 82.1988 72.3086C82.3547 72.4646 82.5589 72.5424 82.7631 72.5424C82.9673 72.5424 83.1716 72.4646 83.3274 72.3086L86.5774 69.0542C86.8885 68.7427 86.8885 68.2368 86.5769 67.9247Z" fill="#FFCB17"/>
<path d="M85.4489 49.0025C85.6047 49.1585 85.8089 49.2363 86.0131 49.2363C86.2174 49.2363 86.4216 49.1585 86.5774 49.0025C86.8891 48.691 86.8891 48.1845 86.5774 47.873L83.3274 44.6186C83.0157 44.3065 82.511 44.3065 82.1994 44.6186C81.8877 44.9301 81.8877 45.4366 82.1994 45.7481L85.4489 49.0025Z" fill="#FFCB17"/>
<path d="M108.724 72.3086C108.88 72.4646 109.084 72.5424 109.289 72.5424C109.493 72.5424 109.697 72.4646 109.853 72.3086C110.164 71.9965 110.164 71.4906 109.853 71.1791L106.603 67.9247C106.291 67.6126 105.786 67.6126 105.475 67.9247C105.163 68.2368 105.163 68.7427 105.475 69.0542L108.724 72.3086Z" fill="#FFCB17"/>
<path d="M98.554 86.0136C98.554 85.5722 98.1972 85.2148 97.7563 85.2148H94.2946C93.8537 85.2148 93.4968 85.5722 93.4968 86.0136C93.4968 86.4551 93.8537 86.8124 94.2946 86.8124H97.7563C98.1972 86.8124 98.554 86.4551 98.554 86.0136Z" fill="#FFCB17"/>
<path d="M96.2071 109.485L110.362 100.954L96.2071 92.9555L81.3058 101.487L96.2071 109.485Z" fill="#AEACB4"/>
<path d="M154.43 75.8925L168.585 67.6277L154.43 59.3628L140.645 67.361L154.43 75.8925Z" fill="#AEACB4"/>
<path d="M23.8295 67.6277L38.7308 76.1591L53.6321 67.6277L38.7308 59.0962L23.8295 67.6277Z" fill="#AEACB4"/>
<path d="M110.432 134.977L154.5 109.507L140.715 102.575L110.432 119.638V134.977Z" fill="#AEACB4"/>
<path d="M53.6321 67.6274L38.7308 76.1589L81.3058 154.525V119.616L53.6321 67.6274Z" fill="#4A4457"/>
<path d="M96.035 108.862V192.668" stroke="#AEACB4"/>
</g>
<defs>
<clipPath id="clip0">
<rect width="192" height="218" fill="white"/>
</clipPath>
</defs>
</svg>
