<svg width="253" height="383" viewBox="0 0 253 383" fill="none" xmlns="http://www.w3.org/2000/svg">
<rect width="253" height="383" fill="white"/>
<g filter="url(#filter0_i)">
<path d="M68.0092 158C68.0091 97.7466 66.0094 36.4173 121.005 38.0312C176 39.645 176 95.0567 176 158" stroke="#F1F1F1" stroke-width="20"/>
</g>
<rect x="48" y="150" width="118" height="195" rx="7" fill="#F5BF00"/>
<path d="M90.9785 151.903C92.277 150.68 93.9929 150 95.776 150H191.915C193.881 150 195.755 150.826 197.081 152.277L209.166 165.494C210.346 166.785 211 168.469 211 170.218V329C211 337.837 203.837 345 195 345H94.1004C92.126 345 90.2433 344.166 88.9165 342.704L43.8161 293.001C42.6474 291.713 42 290.037 42 288.297V201.025C42 199.094 42.7969 197.25 44.2024 195.927L90.9785 151.903Z" fill="#FFCB17"/>
<g filter="url(#filter1_d)">
<g filter="url(#filter2_i)">
<rect x="157.5" y="179" width="30" height="18.75" rx="2.5" fill="#F5F5F5"/>
</g>
<g filter="url(#filter3_i)">
<path d="M187.5 181.5C187.5 180.119 188.619 179 190 179H193.75C194.44 179 195 179.56 195 180.25V196.5C195 197.19 194.44 197.75 193.75 197.75H190C188.619 197.75 187.5 196.631 187.5 195.25V181.5Z" fill="#F5F5F5"/>
</g>
<g filter="url(#filter4_i)">
<path d="M157.5 181.5C157.5 180.119 156.381 179 155 179H151.25C150.56 179 150 179.56 150 180.25V196.5C150 197.19 150.56 197.75 151.25 197.75H155C156.381 197.75 157.5 196.631 157.5 195.25V181.5Z" fill="#F5F5F5"/>
</g>
<path d="M175.55 193.406C175.85 193.406 176.075 193.475 176.225 193.612C176.375 193.75 176.45 193.944 176.45 194.194C176.45 194.731 176.15 195 175.55 195H169.288C168.675 195 168.369 194.731 168.369 194.194C168.369 193.944 168.444 193.75 168.594 193.612C168.756 193.475 168.988 193.406 169.288 193.406H171.444V184.05L169.513 185.269C169.388 185.344 169.263 185.381 169.138 185.381C168.925 185.381 168.738 185.287 168.575 185.1C168.425 184.912 168.35 184.7 168.35 184.462C168.35 184.175 168.475 183.95 168.725 183.787L171.613 181.95C171.9 181.775 172.175 181.687 172.438 181.687C172.713 181.687 172.938 181.775 173.113 181.95C173.288 182.125 173.375 182.362 173.375 182.662V193.406H175.55Z" fill="#333333"/>
</g>
<g filter="url(#filter5_d)">
<g filter="url(#filter6_i)">
<rect x="157.5" y="207.75" width="30" height="18.75" rx="2.5" fill="#F5F5F5"/>
</g>
<g filter="url(#filter7_i)">
<path d="M187.5 210.25C187.5 208.869 188.619 207.75 190 207.75H193.75C194.44 207.75 195 208.31 195 209V225.25C195 225.94 194.44 226.5 193.75 226.5H190C188.619 226.5 187.5 225.381 187.5 224V210.25Z" fill="#F5F5F5"/>
</g>
<g filter="url(#filter8_i)">
<path d="M157.5 210.25C157.5 208.869 156.381 207.75 155 207.75H151.25C150.56 207.75 150 208.31 150 209V225.25C150 225.94 150.56 226.5 151.25 226.5H155C156.381 226.5 157.5 225.381 157.5 224V210.25Z" fill="#F5F5F5"/>
</g>
<path d="M175.55 222.156C175.85 222.156 176.075 222.225 176.225 222.362C176.375 222.5 176.45 222.694 176.45 222.944C176.45 223.481 176.15 223.75 175.55 223.75H169.288C168.675 223.75 168.369 223.481 168.369 222.944C168.369 222.694 168.444 222.5 168.594 222.362C168.756 222.225 168.988 222.156 169.288 222.156H171.444V212.8L169.513 214.019C169.388 214.094 169.263 214.131 169.138 214.131C168.925 214.131 168.738 214.037 168.575 213.85C168.425 213.662 168.35 213.45 168.35 213.212C168.35 212.925 168.475 212.7 168.725 212.537L171.613 210.7C171.9 210.525 172.175 210.437 172.438 210.437C172.713 210.437 172.938 210.525 173.113 210.7C173.288 210.875 173.375 211.112 173.375 211.412V222.156H175.55Z" fill="#333333"/>
</g>
<g filter="url(#filter9_d)">
<g filter="url(#filter10_i)">
<rect x="157.5" y="236.5" width="30" height="18.75" rx="2.5" fill="#F5F5F5"/>
</g>
<g filter="url(#filter11_i)">
<path d="M187.5 239C187.5 237.619 188.619 236.5 190 236.5H193.75C194.44 236.5 195 237.06 195 237.75V254C195 254.69 194.44 255.25 193.75 255.25H190C188.619 255.25 187.5 254.131 187.5 252.75V239Z" fill="#F5F5F5"/>
</g>
<g filter="url(#filter12_i)">
<path d="M157.5 239C157.5 237.619 156.381 236.5 155 236.5H151.25C150.56 236.5 150 237.06 150 237.75V254C150 254.69 150.56 255.25 151.25 255.25H155C156.381 255.25 157.5 254.131 157.5 252.75V239Z" fill="#F5F5F5"/>
</g>
<path d="M171.875 252.65C170.338 252.65 169.163 252.075 168.35 250.925C167.55 249.775 167.15 248.1 167.15 245.9C167.15 243.687 167.55 242.006 168.35 240.856C169.163 239.706 170.338 239.131 171.875 239.131C173.413 239.131 174.581 239.706 175.381 240.856C176.194 241.994 176.6 243.669 176.6 245.881C176.6 248.094 176.194 249.775 175.381 250.925C174.581 252.075 173.413 252.65 171.875 252.65ZM171.875 251.094C172.838 251.094 173.544 250.675 173.994 249.837C174.444 249 174.669 247.681 174.669 245.881C174.669 244.081 174.444 242.769 173.994 241.944C173.544 241.106 172.838 240.687 171.875 240.687C170.913 240.687 170.206 241.106 169.756 241.944C169.306 242.769 169.081 244.081 169.081 245.881C169.081 247.669 169.306 248.987 169.756 249.837C170.206 250.675 170.913 251.094 171.875 251.094Z" fill="#333333"/>
</g>
<g filter="url(#filter13_d)">
<g filter="url(#filter14_i)">
<rect x="157.5" y="265.25" width="30" height="18.75" rx="2.5" fill="#F5F5F5"/>
</g>
<g filter="url(#filter15_i)">
<path d="M187.5 267.75C187.5 266.369 188.619 265.25 190 265.25H193.75C194.44 265.25 195 265.81 195 266.5V282.75C195 283.44 194.44 284 193.75 284H190C188.619 284 187.5 282.881 187.5 281.5V267.75Z" fill="#F5F5F5"/>
</g>
<g filter="url(#filter16_i)">
<path d="M157.5 267.75C157.5 266.369 156.381 265.25 155 265.25H151.25C150.56 265.25 150 265.81 150 266.5V282.75C150 283.44 150.56 284 151.25 284H155C156.381 284 157.5 282.881 157.5 281.5V267.75Z" fill="#F5F5F5"/>
</g>
<path d="M175.55 279.656C175.85 279.656 176.075 279.725 176.225 279.862C176.375 280 176.45 280.194 176.45 280.444C176.45 280.981 176.15 281.25 175.55 281.25H169.288C168.675 281.25 168.369 280.981 168.369 280.444C168.369 280.194 168.444 280 168.594 279.862C168.756 279.725 168.988 279.656 169.288 279.656H171.444V270.3L169.513 271.519C169.388 271.594 169.263 271.631 169.138 271.631C168.925 271.631 168.738 271.537 168.575 271.35C168.425 271.162 168.35 270.95 168.35 270.712C168.35 270.425 168.475 270.2 168.725 270.037L171.613 268.2C171.9 268.025 172.175 267.937 172.438 267.937C172.713 267.937 172.938 268.025 173.113 268.2C173.288 268.375 173.375 268.612 173.375 268.912V279.656H175.55Z" fill="#333333"/>
</g>
<g filter="url(#filter17_d)">
<g filter="url(#filter18_i)">
<rect x="157.5" y="294" width="30" height="18.75" rx="2.5" fill="#F5F5F5"/>
</g>
<g filter="url(#filter19_i)">
<path d="M187.5 296.5C187.5 295.119 188.619 294 190 294H193.75C194.44 294 195 294.56 195 295.25V311.5C195 312.19 194.44 312.75 193.75 312.75H190C188.619 312.75 187.5 311.631 187.5 310.25V296.5Z" fill="#F5F5F5"/>
</g>
<g filter="url(#filter20_i)">
<path d="M157.5 296.5C157.5 295.119 156.381 294 155 294H151.25C150.56 294 150 294.56 150 295.25V311.5C150 312.19 150.56 312.75 151.25 312.75H155C156.381 312.75 157.5 311.631 157.5 310.25V296.5Z" fill="#F5F5F5"/>
</g>
<path d="M171.875 310.15C170.338 310.15 169.163 309.575 168.35 308.425C167.55 307.275 167.15 305.6 167.15 303.4C167.15 301.187 167.55 299.506 168.35 298.356C169.163 297.206 170.338 296.631 171.875 296.631C173.413 296.631 174.581 297.206 175.381 298.356C176.194 299.494 176.6 301.169 176.6 303.381C176.6 305.594 176.194 307.275 175.381 308.425C174.581 309.575 173.413 310.15 171.875 310.15ZM171.875 308.594C172.838 308.594 173.544 308.175 173.994 307.337C174.444 306.5 174.669 305.181 174.669 303.381C174.669 301.581 174.444 300.269 173.994 299.444C173.544 298.606 172.838 298.187 171.875 298.187C170.913 298.187 170.206 298.606 169.756 299.444C169.306 300.269 169.081 301.581 169.081 303.381C169.081 305.169 169.306 306.487 169.756 307.337C170.206 308.175 170.913 308.594 171.875 308.594Z" fill="#333333"/>
</g>
<defs>
<filter id="filter0_i" x="57.9961" y="27.0002" width="128.004" height="131" filterUnits="userSpaceOnUse" color-interpolation-filters="sRGB">
<feFlood flood-opacity="0" result="BackgroundImageFix"/>
<feBlend mode="normal" in="SourceGraphic" in2="BackgroundImageFix" result="shape"/>
<feColorMatrix in="SourceAlpha" type="matrix" values="0 0 0 0 0 0 0 0 0 0 0 0 0 0 0 0 0 0 127 0" result="hardAlpha"/>
<feOffset dy="-1"/>
<feGaussianBlur stdDeviation="2"/>
<feComposite in2="hardAlpha" operator="arithmetic" k2="-1" k3="1"/>
<feColorMatrix type="matrix" values="0 0 0 0 0 0 0 0 0 0 0 0 0 0 0 0 0 0 0.47 0"/>
<feBlend mode="normal" in2="shape" result="effect1_innerShadow"/>
</filter>
<filter id="filter1_d" x="148" y="179" width="47" height="20.75" filterUnits="userSpaceOnUse" color-interpolation-filters="sRGB">
<feFlood flood-opacity="0" result="BackgroundImageFix"/>
<feColorMatrix in="SourceAlpha" type="matrix" values="0 0 0 0 0 0 0 0 0 0 0 0 0 0 0 0 0 0 127 0"/>
<feOffset dx="-1" dy="1"/>
<feGaussianBlur stdDeviation="0.5"/>
<feColorMatrix type="matrix" values="0 0 0 0 0 0 0 0 0 0 0 0 0 0 0 0 0 0 0.15 0"/>
<feBlend mode="normal" in2="BackgroundImageFix" result="effect1_dropShadow"/>
<feBlend mode="normal" in="SourceGraphic" in2="effect1_dropShadow" result="shape"/>
</filter>
<filter id="filter2_i" x="157.5" y="179" width="30" height="18.75" filterUnits="userSpaceOnUse" color-interpolation-filters="sRGB">
<feFlood flood-opacity="0" result="BackgroundImageFix"/>
<feBlend mode="normal" in="SourceGraphic" in2="BackgroundImageFix" result="shape"/>
<feColorMatrix in="SourceAlpha" type="matrix" values="0 0 0 0 0 0 0 0 0 0 0 0 0 0 0 0 0 0 127 0" result="hardAlpha"/>
<feOffset/>
<feGaussianBlur stdDeviation="0.625"/>
<feComposite in2="hardAlpha" operator="arithmetic" k2="-1" k3="1"/>
<feColorMatrix type="matrix" values="0 0 0 0 0 0 0 0 0 0 0 0 0 0 0 0 0 0 0.25 0"/>
<feBlend mode="normal" in2="shape" result="effect1_innerShadow"/>
</filter>
<filter id="filter3_i" x="187.5" y="179" width="7.5" height="18.75" filterUnits="userSpaceOnUse" color-interpolation-filters="sRGB">
<feFlood flood-opacity="0" result="BackgroundImageFix"/>
<feBlend mode="normal" in="SourceGraphic" in2="BackgroundImageFix" result="shape"/>
<feColorMatrix in="SourceAlpha" type="matrix" values="0 0 0 0 0 0 0 0 0 0 0 0 0 0 0 0 0 0 127 0" result="hardAlpha"/>
<feOffset/>
<feGaussianBlur stdDeviation="0.625"/>
<feComposite in2="hardAlpha" operator="arithmetic" k2="-1" k3="1"/>
<feColorMatrix type="matrix" values="0 0 0 0 0 0 0 0 0 0 0 0 0 0 0 0 0 0 0.25 0"/>
<feBlend mode="normal" in2="shape" result="effect1_innerShadow"/>
</filter>
<filter id="filter4_i" x="150" y="179" width="7.5" height="18.75" filterUnits="userSpaceOnUse" color-interpolation-filters="sRGB">
<feFlood flood-opacity="0" result="BackgroundImageFix"/>
<feBlend mode="normal" in="SourceGraphic" in2="BackgroundImageFix" result="shape"/>
<feColorMatrix in="SourceAlpha" type="matrix" values="0 0 0 0 0 0 0 0 0 0 0 0 0 0 0 0 0 0 127 0" result="hardAlpha"/>
<feOffset/>
<feGaussianBlur stdDeviation="0.625"/>
<feComposite in2="hardAlpha" operator="arithmetic" k2="-1" k3="1"/>
<feColorMatrix type="matrix" values="0 0 0 0 0 0 0 0 0 0 0 0 0 0 0 0 0 0 0.25 0"/>
<feBlend mode="normal" in2="shape" result="effect1_innerShadow"/>
</filter>
<filter id="filter5_d" x="148" y="207.75" width="47" height="20.75" filterUnits="userSpaceOnUse" color-interpolation-filters="sRGB">
<feFlood flood-opacity="0" result="BackgroundImageFix"/>
<feColorMatrix in="SourceAlpha" type="matrix" values="0 0 0 0 0 0 0 0 0 0 0 0 0 0 0 0 0 0 127 0"/>
<feOffset dx="-1" dy="1"/>
<feGaussianBlur stdDeviation="0.5"/>
<feColorMatrix type="matrix" values="0 0 0 0 0 0 0 0 0 0 0 0 0 0 0 0 0 0 0.15 0"/>
<feBlend mode="normal" in2="BackgroundImageFix" result="effect1_dropShadow"/>
<feBlend mode="normal" in="SourceGraphic" in2="effect1_dropShadow" result="shape"/>
</filter>
<filter id="filter6_i" x="157.5" y="207.75" width="30" height="18.75" filterUnits="userSpaceOnUse" color-interpolation-filters="sRGB">
<feFlood flood-opacity="0" result="BackgroundImageFix"/>
<feBlend mode="normal" in="SourceGraphic" in2="BackgroundImageFix" result="shape"/>
<feColorMatrix in="SourceAlpha" type="matrix" values="0 0 0 0 0 0 0 0 0 0 0 0 0 0 0 0 0 0 127 0" result="hardAlpha"/>
<feOffset/>
<feGaussianBlur stdDeviation="0.625"/>
<feComposite in2="hardAlpha" operator="arithmetic" k2="-1" k3="1"/>
<feColorMatrix type="matrix" values="0 0 0 0 0 0 0 0 0 0 0 0 0 0 0 0 0 0 0.25 0"/>
<feBlend mode="normal" in2="shape" result="effect1_innerShadow"/>
</filter>
<filter id="filter7_i" x="187.5" y="207.75" width="7.5" height="18.75" filterUnits="userSpaceOnUse" color-interpolation-filters="sRGB">
<feFlood flood-opacity="0" result="BackgroundImageFix"/>
<feBlend mode="normal" in="SourceGraphic" in2="BackgroundImageFix" result="shape"/>
<feColorMatrix in="SourceAlpha" type="matrix" values="0 0 0 0 0 0 0 0 0 0 0 0 0 0 0 0 0 0 127 0" result="hardAlpha"/>
<feOffset/>
<feGaussianBlur stdDeviation="0.625"/>
<feComposite in2="hardAlpha" operator="arithmetic" k2="-1" k3="1"/>
<feColorMatrix type="matrix" values="0 0 0 0 0 0 0 0 0 0 0 0 0 0 0 0 0 0 0.25 0"/>
<feBlend mode="normal" in2="shape" result="effect1_innerShadow"/>
</filter>
<filter id="filter8_i" x="150" y="207.75" width="7.5" height="18.75" filterUnits="userSpaceOnUse" color-interpolation-filters="sRGB">
<feFlood flood-opacity="0" result="BackgroundImageFix"/>
<feBlend mode="normal" in="SourceGraphic" in2="BackgroundImageFix" result="shape"/>
<feColorMatrix in="SourceAlpha" type="matrix" values="0 0 0 0 0 0 0 0 0 0 0 0 0 0 0 0 0 0 127 0" result="hardAlpha"/>
<feOffset/>
<feGaussianBlur stdDeviation="0.625"/>
<feComposite in2="hardAlpha" operator="arithmetic" k2="-1" k3="1"/>
<feColorMatrix type="matrix" values="0 0 0 0 0 0 0 0 0 0 0 0 0 0 0 0 0 0 0.25 0"/>
<feBlend mode="normal" in2="shape" result="effect1_innerShadow"/>
</filter>
<filter id="filter9_d" x="148" y="236.5" width="47" height="20.75" filterUnits="userSpaceOnUse" color-interpolation-filters="sRGB">
<feFlood flood-opacity="0" result="BackgroundImageFix"/>
<feColorMatrix in="SourceAlpha" type="matrix" values="0 0 0 0 0 0 0 0 0 0 0 0 0 0 0 0 0 0 127 0"/>
<feOffset dx="-1" dy="1"/>
<feGaussianBlur stdDeviation="0.5"/>
<feColorMatrix type="matrix" values="0 0 0 0 0 0 0 0 0 0 0 0 0 0 0 0 0 0 0.15 0"/>
<feBlend mode="normal" in2="BackgroundImageFix" result="effect1_dropShadow"/>
<feBlend mode="normal" in="SourceGraphic" in2="effect1_dropShadow" result="shape"/>
</filter>
<filter id="filter10_i" x="157.5" y="236.5" width="30" height="18.75" filterUnits="userSpaceOnUse" color-interpolation-filters="sRGB">
<feFlood flood-opacity="0" result="BackgroundImageFix"/>
<feBlend mode="normal" in="SourceGraphic" in2="BackgroundImageFix" result="shape"/>
<feColorMatrix in="SourceAlpha" type="matrix" values="0 0 0 0 0 0 0 0 0 0 0 0 0 0 0 0 0 0 127 0" result="hardAlpha"/>
<feOffset/>
<feGaussianBlur stdDeviation="0.625"/>
<feComposite in2="hardAlpha" operator="arithmetic" k2="-1" k3="1"/>
<feColorMatrix type="matrix" values="0 0 0 0 0 0 0 0 0 0 0 0 0 0 0 0 0 0 0.25 0"/>
<feBlend mode="normal" in2="shape" result="effect1_innerShadow"/>
</filter>
<filter id="filter11_i" x="187.5" y="236.5" width="7.5" height="18.75" filterUnits="userSpaceOnUse" color-interpolation-filters="sRGB">
<feFlood flood-opacity="0" result="BackgroundImageFix"/>
<feBlend mode="normal" in="SourceGraphic" in2="BackgroundImageFix" result="shape"/>
<feColorMatrix in="SourceAlpha" type="matrix" values="0 0 0 0 0 0 0 0 0 0 0 0 0 0 0 0 0 0 127 0" result="hardAlpha"/>
<feOffset/>
<feGaussianBlur stdDeviation="0.625"/>
<feComposite in2="hardAlpha" operator="arithmetic" k2="-1" k3="1"/>
<feColorMatrix type="matrix" values="0 0 0 0 0 0 0 0 0 0 0 0 0 0 0 0 0 0 0.25 0"/>
<feBlend mode="normal" in2="shape" result="effect1_innerShadow"/>
</filter>
<filter id="filter12_i" x="150" y="236.5" width="7.5" height="18.75" filterUnits="userSpaceOnUse" color-interpolation-filters="sRGB">
<feFlood flood-opacity="0" result="BackgroundImageFix"/>
<feBlend mode="normal" in="SourceGraphic" in2="BackgroundImageFix" result="shape"/>
<feColorMatrix in="SourceAlpha" type="matrix" values="0 0 0 0 0 0 0 0 0 0 0 0 0 0 0 0 0 0 127 0" result="hardAlpha"/>
<feOffset/>
<feGaussianBlur stdDeviation="0.625"/>
<feComposite in2="hardAlpha" operator="arithmetic" k2="-1" k3="1"/>
<feColorMatrix type="matrix" values="0 0 0 0 0 0 0 0 0 0 0 0 0 0 0 0 0 0 0.25 0"/>
<feBlend mode="normal" in2="shape" result="effect1_innerShadow"/>
</filter>
<filter id="filter13_d" x="148" y="265.25" width="47" height="20.75" filterUnits="userSpaceOnUse" color-interpolation-filters="sRGB">
<feFlood flood-opacity="0" result="BackgroundImageFix"/>
<feColorMatrix in="SourceAlpha" type="matrix" values="0 0 0 0 0 0 0 0 0 0 0 0 0 0 0 0 0 0 127 0"/>
<feOffset dx="-1" dy="1"/>
<feGaussianBlur stdDeviation="0.5"/>
<feColorMatrix type="matrix" values="0 0 0 0 0 0 0 0 0 0 0 0 0 0 0 0 0 0 0.15 0"/>
<feBlend mode="normal" in2="BackgroundImageFix" result="effect1_dropShadow"/>
<feBlend mode="normal" in="SourceGraphic" in2="effect1_dropShadow" result="shape"/>
</filter>
<filter id="filter14_i" x="157.5" y="265.25" width="30" height="18.75" filterUnits="userSpaceOnUse" color-interpolation-filters="sRGB">
<feFlood flood-opacity="0" result="BackgroundImageFix"/>
<feBlend mode="normal" in="SourceGraphic" in2="BackgroundImageFix" result="shape"/>
<feColorMatrix in="SourceAlpha" type="matrix" values="0 0 0 0 0 0 0 0 0 0 0 0 0 0 0 0 0 0 127 0" result="hardAlpha"/>
<feOffset/>
<feGaussianBlur stdDeviation="0.625"/>
<feComposite in2="hardAlpha" operator="arithmetic" k2="-1" k3="1"/>
<feColorMatrix type="matrix" values="0 0 0 0 0 0 0 0 0 0 0 0 0 0 0 0 0 0 0.25 0"/>
<feBlend mode="normal" in2="shape" result="effect1_innerShadow"/>
</filter>
<filter id="filter15_i" x="187.5" y="265.25" width="7.5" height="18.75" filterUnits="userSpaceOnUse" color-interpolation-filters="sRGB">
<feFlood flood-opacity="0" result="BackgroundImageFix"/>
<feBlend mode="normal" in="SourceGraphic" in2="BackgroundImageFix" result="shape"/>
<feColorMatrix in="SourceAlpha" type="matrix" values="0 0 0 0 0 0 0 0 0 0 0 0 0 0 0 0 0 0 127 0" result="hardAlpha"/>
<feOffset/>
<feGaussianBlur stdDeviation="0.625"/>
<feComposite in2="hardAlpha" operator="arithmetic" k2="-1" k3="1"/>
<feColorMatrix type="matrix" values="0 0 0 0 0 0 0 0 0 0 0 0 0 0 0 0 0 0 0.25 0"/>
<feBlend mode="normal" in2="shape" result="effect1_innerShadow"/>
</filter>
<filter id="filter16_i" x="150" y="265.25" width="7.5" height="18.75" filterUnits="userSpaceOnUse" color-interpolation-filters="sRGB">
<feFlood flood-opacity="0" result="BackgroundImageFix"/>
<feBlend mode="normal" in="SourceGraphic" in2="BackgroundImageFix" result="shape"/>
<feColorMatrix in="SourceAlpha" type="matrix" values="0 0 0 0 0 0 0 0 0 0 0 0 0 0 0 0 0 0 127 0" result="hardAlpha"/>
<feOffset/>
<feGaussianBlur stdDeviation="0.625"/>
<feComposite in2="hardAlpha" operator="arithmetic" k2="-1" k3="1"/>
<feColorMatrix type="matrix" values="0 0 0 0 0 0 0 0 0 0 0 0 0 0 0 0 0 0 0.25 0"/>
<feBlend mode="normal" in2="shape" result="effect1_innerShadow"/>
</filter>
<filter id="filter17_d" x="148" y="294" width="47" height="20.75" filterUnits="userSpaceOnUse" color-interpolation-filters="sRGB">
<feFlood flood-opacity="0" result="BackgroundImageFix"/>
<feColorMatrix in="SourceAlpha" type="matrix" values="0 0 0 0 0 0 0 0 0 0 0 0 0 0 0 0 0 0 127 0"/>
<feOffset dx="-1" dy="1"/>
<feGaussianBlur stdDeviation="0.5"/>
<feColorMatrix type="matrix" values="0 0 0 0 0 0 0 0 0 0 0 0 0 0 0 0 0 0 0.15 0"/>
<feBlend mode="normal" in2="BackgroundImageFix" result="effect1_dropShadow"/>
<feBlend mode="normal" in="SourceGraphic" in2="effect1_dropShadow" result="shape"/>
</filter>
<filter id="filter18_i" x="157.5" y="294" width="30" height="18.75" filterUnits="userSpaceOnUse" color-interpolation-filters="sRGB">
<feFlood flood-opacity="0" result="BackgroundImageFix"/>
<feBlend mode="normal" in="SourceGraphic" in2="BackgroundImageFix" result="shape"/>
<feColorMatrix in="SourceAlpha" type="matrix" values="0 0 0 0 0 0 0 0 0 0 0 0 0 0 0 0 0 0 127 0" result="hardAlpha"/>
<feOffset/>
<feGaussianBlur stdDeviation="0.625"/>
<feComposite in2="hardAlpha" operator="arithmetic" k2="-1" k3="1"/>
<feColorMatrix type="matrix" values="0 0 0 0 0 0 0 0 0 0 0 0 0 0 0 0 0 0 0.25 0"/>
<feBlend mode="normal" in2="shape" result="effect1_innerShadow"/>
</filter>
<filter id="filter19_i" x="187.5" y="294" width="7.5" height="18.75" filterUnits="userSpaceOnUse" color-interpolation-filters="sRGB">
<feFlood flood-opacity="0" result="BackgroundImageFix"/>
<feBlend mode="normal" in="SourceGraphic" in2="BackgroundImageFix" result="shape"/>
<feColorMatrix in="SourceAlpha" type="matrix" values="0 0 0 0 0 0 0 0 0 0 0 0 0 0 0 0 0 0 127 0" result="hardAlpha"/>
<feOffset/>
<feGaussianBlur stdDeviation="0.625"/>
<feComposite in2="hardAlpha" operator="arithmetic" k2="-1" k3="1"/>
<feColorMatrix type="matrix" values="0 0 0 0 0 0 0 0 0 0 0 0 0 0 0 0 0 0 0.25 0"/>
<feBlend mode="normal" in2="shape" result="effect1_innerShadow"/>
</filter>
<filter id="filter20_i" x="150" y="294" width="7.5" height="18.75" filterUnits="userSpaceOnUse" color-interpolation-filters="sRGB">
<feFlood flood-opacity="0" result="BackgroundImageFix"/>
<feBlend mode="normal" in="SourceGraphic" in2="BackgroundImageFix" result="shape"/>
<feColorMatrix in="SourceAlpha" type="matrix" values="0 0 0 0 0 0 0 0 0 0 0 0 0 0 0 0 0 0 127 0" result="hardAlpha"/>
<feOffset/>
<feGaussianBlur stdDeviation="0.625"/>
<feComposite in2="hardAlpha" operator="arithmetic" k2="-1" k3="1"/>
<feColorMatrix type="matrix" values="0 0 0 0 0 0 0 0 0 0 0 0 0 0 0 0 0 0 0.25 0"/>
<feBlend mode="normal" in2="shape" result="effect1_innerShadow"/>
</filter>
</defs>
</svg>
