<svg viewBox="0 0 1125 1193" xmlns="http://www.w3.org/2000/svg">
<g clip-path="url(#clip0)">
<path fill-rule="evenodd" clip-rule="evenodd" d="M-5 -1V1136H-2.21484C74.1482 1130.82 120.507 1109.95 156 1086.14C175.424 1073.11 193.103 1055.55 212.605 1036.17C248.745 1000.26 291.144 958.135 362.5 927.142C488.918 872.233 571.811 905.845 635.343 931.607C658.996 941.198 679.967 949.701 699.5 952.142C841 969.83 895.5 873.142 914 836.142C923.947 816.249 927.181 798.642 921.954 779.746C899.173 697.385 922 580.642 944 519.142C958.571 478.411 978.35 447.597 998.548 416.13C1029.19 368.387 1060.8 319.142 1076.65 231.475C1102.93 86.0287 1141 18.1423 1141 18.1423V-1H-5Z" fill="url(#paint0_radial)"/>
<path d="M27.8847 1063.67L27.0007 1062.14L30.2881 1060.24L24.1781 1049.66L21.5662 1051.17L20.8772 1049.98C21.4684 1049.48 21.9564 1049 22.3415 1048.56C22.7328 1048.09 23.0543 1047.63 23.3059 1047.16L24.7245 1046.34L32.1345 1059.18L35.1067 1057.46L35.9907 1058.99L27.8847 1063.67Z" fill="#DAD1E9"/>
<path d="M680.992 643.106L680.108 641.575L683.396 639.677L677.286 629.094L674.674 630.602L673.985 629.409C674.576 628.907 675.064 628.435 675.449 627.993C675.84 627.527 676.162 627.061 676.413 626.596L677.832 625.776L685.242 638.611L688.214 636.895L689.098 638.426L680.992 643.106Z" fill="#DAD1E9"/>
<path d="M160.489 1048.3L159.885 1046.64L163.452 1045.34L159.272 1033.85L156.438 1034.89L155.967 1033.59C156.636 1033.2 157.199 1032.82 157.655 1032.45C158.121 1032.06 158.518 1031.66 158.847 1031.24L160.386 1030.68L165.455 1044.61L168.68 1043.43L169.285 1045.1L160.489 1048.3Z" fill="#DAD1E9"/>
<path d="M206.116 1017.81L204.585 1016.92L206.483 1013.64L195.9 1007.53L194.392 1010.14L193.199 1009.45C193.46 1008.72 193.647 1008.07 193.759 1007.49C193.865 1006.89 193.91 1006.33 193.896 1005.8L194.714 1004.38L207.549 1011.79L209.265 1008.82L210.796 1009.7L206.116 1017.81Z" fill="#DAD1E9"/>
<path d="M908.546 637.432L907.015 636.548L908.913 633.261L898.33 627.151L896.822 629.763L895.629 629.074C895.89 628.344 896.077 627.691 896.189 627.116C896.295 626.516 896.34 625.952 896.326 625.423L897.145 624.005L909.979 631.415L911.695 628.442L913.226 629.326L908.546 637.432Z" fill="#DAD1E9"/>
<path d="M906.956 368.824L905.425 367.94L907.323 364.653L896.74 358.543L895.232 361.155L894.039 360.466C894.3 359.736 894.487 359.083 894.599 358.507C894.705 357.908 894.75 357.344 894.736 356.815L895.555 355.396L908.389 362.806L910.105 359.834L911.636 360.718L906.956 368.824Z" fill="#DAD1E9"/>
<path d="M1026.96 168.824L1025.43 167.94L1027.32 164.653L1016.74 158.543L1015.23 161.155L1014.04 160.466C1014.3 159.736 1014.49 159.083 1014.6 158.507C1014.7 157.908 1014.75 157.344 1014.74 156.815L1015.55 155.396L1028.39 162.806L1030.11 159.834L1031.64 160.718L1026.96 168.824Z" fill="#DAD1E9"/>
<path d="M820.73 455.998L820.126 454.336L823.693 453.038L819.513 441.555L816.679 442.586L816.208 441.292C816.877 440.9 817.44 440.52 817.896 440.151C818.362 439.76 818.759 439.357 819.088 438.943L820.627 438.382L825.696 452.309L828.921 451.135L829.526 452.796L820.73 455.998Z" fill="#DAD1E9"/>
<path d="M1003.82 328.922L1003.22 327.26L1006.79 325.962L1002.61 314.479L999.771 315.51L999.3 314.216C999.969 313.824 1000.53 313.444 1000.99 313.075C1001.45 312.684 1001.85 312.281 1002.18 311.867L1003.72 311.306L1008.79 325.233L1012.01 324.059L1012.62 325.72L1003.82 328.922Z" fill="#DAD1E9"/>
<path d="M1035.26 17.0671L1034.66 15.4058L1038.23 14.1075L1034.05 2.62439L1031.21 3.65594L1030.74 2.36102C1031.41 1.96987 1031.97 1.58988 1032.43 1.22101C1032.9 0.829916 1033.29 0.426982 1033.62 0.0122375L1035.16 -0.547974L1040.23 13.3783L1043.45 12.2044L1044.06 13.8658L1035.26 17.0671Z" fill="#DAD1E9"/>
<path d="M315.563 918.299L316.447 916.768L319.734 918.666L325.844 908.083L323.232 906.575L323.921 905.381C324.651 905.643 325.304 905.829 325.88 905.942C326.479 906.047 327.043 906.093 327.572 906.078L328.991 906.897L321.581 919.732L324.553 921.448L323.669 922.979L315.563 918.299Z" fill="#DAD1E9"/>
<path d="M683.03 697.731L683.914 696.2L687.201 698.098L693.311 687.515L690.699 686.007L691.388 684.814C692.118 685.075 692.771 685.262 693.347 685.374C693.946 685.48 694.51 685.525 695.039 685.51L696.458 686.329L689.048 699.164L692.02 700.88L691.136 702.411L683.03 697.731Z" fill="#DAD1E9"/>
<path d="M785.271 795.058V793.29H789.067V781.07H786.051V779.692C786.813 779.554 787.472 779.389 788.026 779.198C788.598 778.99 789.11 778.748 789.561 778.47H791.198V793.29H794.63V795.058H785.271Z" fill="#DAD1E9"/>
<path d="M737.608 647.642L737.762 645.88L741.544 646.211L742.609 634.038L739.604 633.775L739.725 632.402C740.496 632.33 741.167 632.224 741.736 632.082C742.324 631.925 742.855 631.728 743.328 631.491L744.959 631.633L743.668 646.397L747.087 646.696L746.933 648.457L737.608 647.642Z" fill="#DAD1E9"/>
<path d="M150.713 977.725C149.133 977.15 148.158 976.002 147.788 974.281C147.419 972.56 147.711 970.388 148.665 967.766C149.62 965.144 150.786 963.308 152.163 962.26C153.541 961.212 155.02 960.976 156.6 961.551C158.163 962.12 159.136 963.249 159.518 964.937C159.899 966.625 159.613 968.781 158.658 971.403C157.704 974.025 156.532 975.877 155.142 976.957C153.753 978.038 152.276 978.294 150.713 977.725ZM151.3 976.112C151.756 976.278 152.207 976.304 152.655 976.19C153.124 976.066 153.584 975.791 154.034 975.364C154.507 974.928 154.965 974.329 155.408 973.568C155.857 972.79 156.289 971.832 156.704 970.692C157.119 969.551 157.401 968.547 157.551 967.68C157.701 966.812 157.729 966.075 157.636 965.469C157.565 964.853 157.387 964.355 157.101 963.974C156.832 963.6 156.469 963.329 156.013 963.163C155.557 962.997 155.097 962.968 154.633 963.076C154.17 963.184 153.705 963.448 153.238 963.869C152.794 964.279 152.35 964.864 151.907 965.625C151.464 966.387 151.035 967.337 150.62 968.477C149.79 970.758 149.462 972.52 149.637 973.764C149.833 974.997 150.388 975.78 151.3 976.112Z" fill="#DAD1E9"/>
<path d="M979.065 345.157C977.485 344.582 976.51 343.434 976.14 341.713C975.771 339.992 976.063 337.82 977.017 335.198C977.972 332.576 979.138 330.741 980.515 329.692C981.893 328.644 983.372 328.408 984.952 328.983C986.515 329.552 987.488 330.681 987.869 332.369C988.251 334.057 987.965 336.213 987.01 338.835C986.056 341.458 984.884 343.309 983.494 344.39C982.105 345.47 980.628 345.726 979.065 345.157ZM979.652 343.544C980.108 343.71 980.559 343.736 981.007 343.623C981.476 343.498 981.936 343.223 982.386 342.797C982.859 342.36 983.317 341.761 983.76 341C984.209 340.223 984.641 339.264 985.056 338.124C985.471 336.984 985.753 335.98 985.903 335.112C986.053 334.244 986.081 333.507 985.988 332.902C985.917 332.286 985.739 331.787 985.453 331.407C985.183 331.032 984.821 330.761 984.365 330.595C983.909 330.429 983.449 330.4 982.985 330.508C982.522 330.616 982.057 330.881 981.59 331.301C981.146 331.711 980.702 332.297 980.259 333.058C979.816 333.819 979.387 334.769 978.972 335.91C978.142 338.19 977.814 339.952 977.989 341.196C978.185 342.43 978.739 343.212 979.652 343.544Z" fill="#DAD1E9"/>
<path d="M73.9014 1103.26C72.4453 1102.41 71.6847 1101.11 71.6194 1099.36C71.5541 1097.6 72.2192 1095.51 73.6145 1093.09C75.0098 1090.68 76.4768 1089.07 78.0154 1088.28C79.554 1087.48 81.0513 1087.51 82.5074 1088.35C83.9485 1089.18 84.7103 1090.46 84.7929 1092.19C84.8755 1093.92 84.2191 1095.99 82.8238 1098.41C81.4285 1100.83 79.9528 1102.45 78.3969 1103.27C76.841 1104.09 75.3424 1104.09 73.9014 1103.26ZM74.7594 1101.77C75.1797 1102.01 75.62 1102.12 76.0802 1102.08C76.5641 1102.04 77.0649 1101.85 77.5824 1101.51C78.1236 1101.16 78.6784 1100.65 79.2468 1099.98C79.8239 1099.29 80.4158 1098.42 81.0225 1097.37C81.6291 1096.32 82.0816 1095.38 82.3798 1094.55C82.6781 1093.72 82.8339 1093 82.8474 1092.39C82.8845 1091.77 82.7955 1091.25 82.5802 1090.82C82.38 1090.41 82.0697 1090.08 81.6494 1089.84C81.2291 1089.59 80.7813 1089.48 80.306 1089.51C79.8308 1089.54 79.3269 1089.72 78.7944 1090.05C78.2855 1090.38 77.7469 1090.87 77.1785 1091.55C76.61 1092.22 76.0225 1093.08 75.4158 1094.13C74.2025 1096.23 73.5736 1097.91 73.5294 1099.17C73.5087 1100.42 73.9188 1101.28 74.7594 1101.77Z" fill="#DAD1E9"/>
<path d="M756.797 577.546C755.34 576.705 754.58 575.405 754.515 573.646C754.449 571.888 755.114 569.8 756.51 567.383C757.905 564.966 759.372 563.361 760.911 562.568C762.449 561.775 763.947 561.799 765.403 562.64C766.844 563.472 767.605 564.752 767.688 566.481C767.771 568.21 767.114 570.283 765.719 572.7C764.324 575.117 762.848 576.736 761.292 577.559C759.736 578.382 758.238 578.378 756.797 577.546ZM757.655 576.06C758.075 576.302 758.515 576.407 758.975 576.372C759.459 576.331 759.96 576.14 760.478 575.798C761.019 575.45 761.574 574.94 762.142 574.267C762.719 573.58 763.311 572.711 763.918 571.66C764.524 570.609 764.977 569.669 765.275 568.841C765.573 568.012 765.729 567.292 765.743 566.679C765.78 566.06 765.691 565.538 765.475 565.114C765.275 564.698 764.965 564.369 764.545 564.126C764.124 563.883 763.676 563.775 763.201 563.801C762.726 563.826 762.222 564.006 761.69 564.339C761.181 564.666 760.642 565.165 760.074 565.838C759.505 566.51 758.918 567.372 758.311 568.423C757.098 570.524 756.469 572.203 756.425 573.458C756.404 574.707 756.814 575.574 757.655 576.06Z" fill="#DAD1E9"/>
<path d="M987.736 268.024C986.28 267.183 985.519 265.883 985.454 264.124C985.389 262.365 986.054 260.278 987.449 257.861C988.845 255.444 990.311 253.839 991.85 253.046C993.389 252.253 994.886 252.277 996.342 253.118C997.783 253.95 998.545 255.23 998.628 256.959C998.71 258.688 998.054 260.761 996.659 263.178C995.263 265.595 993.788 267.214 992.232 268.037C990.676 268.86 989.177 268.856 987.736 268.024ZM988.594 266.538C989.014 266.78 989.455 266.885 989.915 266.85C990.399 266.809 990.9 266.618 991.417 266.276C991.958 265.928 992.513 265.418 993.082 264.745C993.659 264.058 994.251 263.189 994.857 262.138C995.464 261.087 995.916 260.147 996.214 259.319C996.513 258.49 996.669 257.77 996.682 257.157C996.719 256.538 996.63 256.016 996.415 255.592C996.215 255.176 995.904 254.847 995.484 254.604C995.064 254.361 994.616 254.253 994.141 254.279C993.665 254.304 993.162 254.484 992.629 254.817C992.12 255.144 991.582 255.643 991.013 256.316C990.445 256.988 989.857 257.85 989.25 258.901C988.037 261.002 987.408 262.681 987.364 263.936C987.344 265.185 987.753 266.052 988.594 266.538Z" fill="#DAD1E9"/>
<path d="M1027.41 68.5202C1025.95 67.6795 1025.19 66.3797 1025.12 64.6208C1025.06 62.8618 1025.72 60.7739 1027.12 58.3571C1028.51 55.9404 1029.98 54.3355 1031.52 53.5425C1033.06 52.7496 1034.56 52.7735 1036.01 53.6142C1037.45 54.4462 1038.21 55.7266 1038.3 57.4555C1038.38 59.1845 1037.72 61.2573 1036.33 63.6741C1034.93 66.0909 1033.46 67.7108 1031.9 68.5338C1030.35 69.3567 1028.85 69.3522 1027.41 68.5202ZM1028.26 67.0341C1028.68 67.2768 1029.12 67.3808 1029.58 67.3463C1030.07 67.3055 1030.57 67.1142 1031.09 66.7725C1031.63 66.4245 1032.18 65.9142 1032.75 65.2416C1033.33 64.5541 1033.92 63.6849 1034.53 62.6341C1035.13 61.5833 1035.59 60.6437 1035.88 59.8151C1036.18 58.9866 1036.34 58.266 1036.35 57.6533C1036.39 57.0343 1036.3 56.5125 1036.08 56.088C1035.88 55.6722 1035.57 55.3429 1035.15 55.1003C1034.73 54.8576 1034.29 54.7492 1033.81 54.775C1033.34 54.8008 1032.83 54.9803 1032.3 55.3133C1031.79 55.64 1031.25 56.1396 1030.68 56.8121C1030.11 57.4847 1029.53 58.3463 1028.92 59.3971C1027.71 61.4987 1027.08 63.1771 1027.03 64.4325C1027.01 65.6816 1027.42 66.5488 1028.26 67.0341Z" fill="#DAD1E9"/>
<path d="M386.88 853.337C385.3 852.761 384.326 851.613 383.956 849.893C383.586 848.172 383.878 846 384.833 843.378C385.787 840.755 386.953 838.92 388.331 837.872C389.708 836.824 391.187 836.588 392.767 837.163C394.331 837.732 395.303 838.86 395.685 840.549C396.067 842.237 395.78 844.392 394.826 847.015C393.871 849.637 392.699 851.489 391.31 852.569C389.92 853.65 388.444 853.906 386.88 853.337ZM387.467 851.724C387.923 851.89 388.375 851.916 388.822 851.802C389.292 851.678 389.752 851.403 390.202 850.976C390.674 850.539 391.132 849.941 391.575 849.18C392.024 848.402 392.456 847.444 392.871 846.303C393.286 845.163 393.568 844.159 393.718 843.292C393.868 842.424 393.896 841.687 393.803 841.081C393.732 840.465 393.554 839.967 393.268 839.586C392.999 839.211 392.636 838.941 392.18 838.775C391.724 838.609 391.264 838.58 390.801 838.688C390.337 838.796 389.872 839.06 389.406 839.481C388.961 839.891 388.518 840.476 388.075 841.237C387.632 841.998 387.203 842.949 386.788 844.089C385.958 846.369 385.63 848.132 385.804 849.376C386.001 850.609 386.555 851.392 387.467 851.724Z" fill="#DAD1E9"/>
<path d="M914.516 517.438C912.936 516.863 911.961 515.715 911.591 513.994C911.221 512.273 911.514 510.102 912.468 507.479C913.423 504.857 914.589 503.022 915.966 501.974C917.344 500.926 918.822 500.689 920.402 501.264C921.966 501.833 922.939 502.962 923.32 504.65C923.702 506.339 923.415 508.494 922.461 511.116C921.506 513.739 920.334 515.59 918.945 516.671C917.556 517.752 916.079 518.007 914.516 517.438ZM915.102 515.826C915.558 515.992 916.01 516.018 916.457 515.904C916.927 515.78 917.387 515.504 917.837 515.078C918.31 514.641 918.767 514.042 919.21 513.281C919.659 512.504 920.091 511.545 920.506 510.405C920.921 509.265 921.204 508.261 921.354 507.393C921.503 506.525 921.532 505.789 921.439 505.183C921.368 504.567 921.189 504.069 920.904 503.688C920.634 503.313 920.272 503.043 919.816 502.877C919.359 502.711 918.9 502.682 918.436 502.79C917.972 502.898 917.507 503.162 917.041 503.582C916.597 503.992 916.153 504.578 915.71 505.339C915.267 506.1 914.838 507.051 914.423 508.191C913.593 510.471 913.265 512.233 913.439 513.477C913.636 514.711 914.19 515.494 915.102 515.826Z" fill="#DAD1E9"/>
<path d="M276.649 965.606C274.968 965.606 273.659 964.86 272.723 963.37C271.787 961.879 271.319 959.738 271.319 956.948C271.319 954.157 271.787 952.034 272.723 950.578C273.659 949.122 274.968 948.394 276.649 948.394C278.313 948.394 279.613 949.122 280.549 950.578C281.485 952.034 281.953 954.157 281.953 956.948C281.953 959.738 281.485 961.879 280.549 963.37C279.613 964.86 278.313 965.606 276.649 965.606ZM276.649 963.89C277.134 963.89 277.568 963.76 277.949 963.5C278.348 963.222 278.686 962.806 278.963 962.252C279.258 961.68 279.483 960.96 279.639 960.094C279.795 959.21 279.873 958.161 279.873 956.948C279.873 955.734 279.795 954.694 279.639 953.828C279.483 952.961 279.258 952.259 278.963 951.722C278.686 951.167 278.348 950.76 277.949 950.5C277.568 950.24 277.134 950.11 276.649 950.11C276.164 950.11 275.722 950.24 275.323 950.5C274.924 950.76 274.578 951.167 274.283 951.722C274.006 952.259 273.789 952.961 273.633 953.828C273.477 954.694 273.399 955.734 273.399 956.948C273.399 959.374 273.694 961.142 274.283 962.252C274.89 963.344 275.678 963.89 276.649 963.89Z" fill="#DAD1E9"/>
<path d="M938.474 426.312C936.793 426.312 935.484 425.567 934.548 424.076C933.612 422.585 933.144 420.445 933.144 417.654C933.144 414.863 933.612 412.74 934.548 411.284C935.484 409.828 936.793 409.1 938.474 409.1C940.138 409.1 941.438 409.828 942.374 411.284C943.31 412.74 943.778 414.863 943.778 417.654C943.778 420.445 943.31 422.585 942.374 424.076C941.438 425.567 940.138 426.312 938.474 426.312ZM938.474 424.596C938.959 424.596 939.393 424.466 939.774 424.206C940.173 423.929 940.511 423.513 940.788 422.958C941.083 422.386 941.308 421.667 941.464 420.8C941.62 419.916 941.698 418.867 941.698 417.654C941.698 416.441 941.62 415.401 941.464 414.534C941.308 413.667 941.083 412.965 940.788 412.428C940.511 411.873 940.173 411.466 939.774 411.206C939.393 410.946 938.959 410.816 938.474 410.816C937.989 410.816 937.547 410.946 937.148 411.206C936.749 411.466 936.403 411.873 936.108 412.428C935.831 412.965 935.614 413.667 935.458 414.534C935.302 415.401 935.224 416.441 935.224 417.654C935.224 420.081 935.519 421.849 936.108 422.958C936.715 424.05 937.503 424.596 938.474 424.596Z" fill="#DAD1E9"/>
<path d="M662.764 882.064C661.308 882.905 659.802 882.914 658.246 882.091C656.691 881.268 655.215 879.648 653.819 877.231C652.424 874.814 651.768 872.742 651.85 871.013C651.933 869.284 652.702 867.999 654.158 867.158C655.6 866.326 657.089 866.307 658.628 867.099C660.167 867.892 661.633 869.497 663.029 871.914C664.424 874.331 665.089 876.419 665.024 878.178C664.959 879.937 664.205 881.232 662.764 882.064ZM661.906 880.578C662.327 880.335 662.637 880.006 662.837 879.59C663.044 879.151 663.129 878.622 663.091 878.003C663.061 877.36 662.896 876.624 662.598 875.796C662.291 874.952 661.834 874.005 661.228 872.954C660.621 871.903 660.033 871.042 659.465 870.369C658.896 869.697 658.35 869.201 657.826 868.883C657.309 868.542 656.813 868.358 656.337 868.332C655.877 868.298 655.437 868.401 655.016 868.644C654.596 868.887 654.278 869.221 654.063 869.645C653.848 870.07 653.751 870.596 653.773 871.223C653.802 871.827 653.965 872.544 654.263 873.372C654.562 874.201 655.014 875.14 655.621 876.191C656.834 878.293 657.973 879.676 659.038 880.343C660.11 880.985 661.066 881.063 661.906 880.578Z" fill="#DAD1E9"/>
<path d="M720.023 809.393C718.567 810.234 717.061 810.243 715.505 809.42C713.95 808.597 712.474 806.977 711.078 804.56C709.683 802.143 709.027 800.071 709.109 798.342C709.192 796.613 709.961 795.328 711.417 794.487C712.859 793.655 714.348 793.636 715.887 794.429C717.426 795.222 718.893 796.826 720.288 799.243C721.683 801.66 722.348 803.748 722.283 805.507C722.218 807.266 721.465 808.561 720.023 809.393ZM719.165 807.907C719.586 807.664 719.896 807.335 720.096 806.919C720.303 806.48 720.388 805.951 720.35 805.332C720.32 804.689 720.155 803.953 719.857 803.125C719.55 802.281 719.093 801.334 718.487 800.283C717.88 799.232 717.292 798.371 716.724 797.698C716.155 797.026 715.609 796.53 715.085 796.212C714.568 795.871 714.072 795.687 713.596 795.661C713.136 795.627 712.696 795.731 712.276 795.973C711.855 796.216 711.537 796.55 711.322 796.974C711.107 797.399 711.01 797.925 711.032 798.552C711.061 799.156 711.224 799.873 711.522 800.701C711.821 801.53 712.273 802.469 712.88 803.52C714.093 805.622 715.232 807.006 716.297 807.672C717.369 808.314 718.325 808.392 719.165 807.907Z" fill="#DAD1E9"/>
<path d="M583.145 849.832C581.565 849.257 580.59 848.109 580.22 846.388C579.851 844.667 580.143 842.496 581.097 839.873C582.052 837.251 583.218 835.416 584.595 834.368C585.973 833.32 587.452 833.083 589.031 833.658C590.595 834.227 591.568 835.356 591.949 837.044C592.331 838.733 592.045 840.888 591.09 843.51C590.136 846.133 588.964 847.984 587.574 849.065C586.185 850.145 584.708 850.401 583.145 849.832ZM583.732 848.22C584.188 848.386 584.639 848.412 585.087 848.298C585.556 848.173 586.016 847.898 586.466 847.472C586.939 847.035 587.397 846.436 587.84 845.675C588.289 844.898 588.721 843.939 589.135 842.799C589.55 841.659 589.833 840.655 589.983 839.787C590.132 838.919 590.161 838.183 590.068 837.577C589.997 836.961 589.819 836.462 589.533 836.082C589.263 835.707 588.901 835.437 588.445 835.271C587.989 835.105 587.529 835.076 587.065 835.184C586.602 835.292 586.137 835.556 585.67 835.976C585.226 836.386 584.782 836.972 584.339 837.733C583.896 838.494 583.467 839.445 583.052 840.585C582.222 842.865 581.894 844.627 582.068 845.871C582.265 847.105 582.819 847.888 583.732 848.22Z" fill="#DAD1E9"/>
<path d="M491.854 876.451C490.198 876.743 488.78 876.237 487.599 874.931C486.419 873.626 485.586 871.599 485.101 868.85C484.617 866.102 484.709 863.93 485.378 862.333C486.047 860.737 487.209 859.793 488.865 859.501C490.504 859.212 491.911 859.703 493.085 860.974C494.26 862.246 495.089 864.256 495.574 867.004C496.058 869.752 495.969 871.941 495.306 873.572C494.643 875.203 493.493 876.162 491.854 876.451ZM491.556 874.761C492.034 874.677 492.438 874.474 492.768 874.151C493.113 873.809 493.374 873.341 493.55 872.746C493.741 872.132 493.838 871.384 493.841 870.504C493.841 869.606 493.736 868.56 493.526 867.365C493.315 866.17 493.057 865.159 492.753 864.333C492.449 863.507 492.105 862.854 491.722 862.376C491.352 861.878 490.949 861.536 490.511 861.349C490.09 861.159 489.641 861.106 489.163 861.191C488.685 861.275 488.272 861.48 487.925 861.805C487.577 862.13 487.307 862.592 487.113 863.189C486.933 863.766 486.842 864.495 486.839 865.376C486.835 866.257 486.939 867.294 487.15 868.489C487.571 870.879 488.168 872.569 488.941 873.559C489.729 874.529 490.6 874.93 491.556 874.761Z" fill="#DAD1E9"/>
<path d="M726.224 761.025C724.569 761.317 723.15 760.811 721.97 759.505C720.789 758.2 719.957 756.173 719.472 753.424C718.987 750.676 719.08 748.504 719.749 746.907C720.417 745.311 721.58 744.367 723.236 744.075C724.874 743.786 726.281 744.277 727.456 745.548C728.63 746.82 729.46 748.83 729.944 751.578C730.429 754.326 730.34 756.516 729.677 758.146C729.014 759.777 727.863 760.736 726.224 761.025ZM725.927 759.335C726.404 759.251 726.809 759.048 727.139 758.726C727.483 758.383 727.744 757.915 727.921 757.321C728.112 756.706 728.209 755.959 728.212 755.078C728.212 754.18 728.107 753.134 727.896 751.939C727.685 750.744 727.428 749.734 727.124 748.907C726.82 748.081 726.476 747.429 726.092 746.951C725.723 746.452 725.319 746.11 724.882 745.923C724.461 745.733 724.012 745.68 723.534 745.765C723.056 745.849 722.643 746.054 722.296 746.379C721.948 746.704 721.677 747.166 721.484 747.763C721.304 748.341 721.212 749.069 721.209 749.95C721.206 750.831 721.31 751.868 721.521 753.063C721.942 755.453 722.539 757.143 723.312 758.133C724.099 759.103 724.971 759.504 725.927 759.335Z" fill="#DAD1E9"/>
<path d="M793.448 700.111C791.868 700.686 790.383 700.433 788.994 699.352C787.604 698.272 786.432 696.42 785.478 693.798C784.523 691.175 784.237 689.02 784.619 687.332C785 685.643 785.981 684.512 787.561 683.937C789.125 683.368 790.595 683.607 791.973 684.655C793.35 685.703 794.516 687.538 795.471 690.161C796.425 692.783 796.717 694.955 796.348 696.676C795.978 698.396 795.011 699.541 793.448 700.111ZM792.861 698.498C793.317 698.332 793.68 698.062 793.949 697.687C794.229 697.29 794.404 696.784 794.475 696.167C794.556 695.529 794.522 694.776 794.372 693.908C794.216 693.024 793.931 692.012 793.516 690.872C793.101 689.732 792.672 688.781 792.229 688.02C791.786 687.259 791.334 686.677 790.874 686.272C790.423 685.846 789.966 685.579 789.503 685.471C789.056 685.357 788.604 685.383 788.148 685.549C787.692 685.715 787.321 685.988 787.035 686.369C786.749 686.75 786.563 687.251 786.476 687.873C786.399 688.473 786.436 689.207 786.585 690.074C786.735 690.942 787.018 691.946 787.432 693.086C788.262 695.367 789.144 696.927 790.077 697.768C791.021 698.587 791.949 698.83 792.861 698.498Z" fill="#DAD1E9"/>
<path d="M892.288 453.114L891.152 451.759L894.06 449.319L886.205 439.958L883.895 441.897L883.009 440.841C883.504 440.245 883.903 439.695 884.205 439.193C884.509 438.666 884.745 438.151 884.912 437.649L886.167 436.596L895.693 447.949L898.322 445.743L899.458 447.097L892.288 453.114Z" fill="#DAD1E9"/>
<path d="M995.104 398.046L993.442 397.441L994.741 393.874L983.258 389.695L982.226 392.529L980.931 392.057C981.062 391.293 981.132 390.618 981.143 390.032C981.143 389.423 981.09 388.859 980.983 388.341L981.544 386.802L995.47 391.871L996.644 388.646L998.305 389.25L995.104 398.046Z" fill="#DAD1E9"/>
<path d="M948.758 467.506L947.874 465.974L951.162 464.076L945.052 453.494L942.44 455.002L941.751 453.808C942.342 453.307 942.83 452.835 943.215 452.392C943.606 451.926 943.928 451.46 944.179 450.995L945.598 450.176L953.008 463.01L955.98 461.294L956.864 462.826L948.758 467.506Z" fill="#DAD1E9"/>
<path d="M1027.54 109.16L1026.65 107.629L1029.94 105.731L1023.83 95.1483L1021.22 96.6563L1020.53 95.463C1021.12 94.9615 1021.61 94.4896 1021.99 94.0471C1022.39 93.581 1022.71 93.1152 1022.96 92.6497L1024.38 91.8307L1031.79 104.665L1034.76 102.949L1035.64 104.48L1027.54 109.16Z" fill="#DAD1E9"/>
<path d="M519.02 811.135L519.625 809.473L523.192 810.772L527.371 799.289L524.537 798.257L525.009 796.962C525.773 797.093 526.448 797.163 527.034 797.174C527.643 797.174 528.206 797.121 528.725 797.014L530.264 797.575L525.195 811.501L528.42 812.675L527.816 814.336L519.02 811.135Z" fill="#DAD1E9"/>
<path d="M775.127 609.478L775.731 607.816L779.298 609.115L783.478 597.632L780.644 596.6L781.115 595.305C781.879 595.436 782.554 595.506 783.141 595.517C783.75 595.517 784.313 595.464 784.831 595.357L786.371 595.918L781.302 609.844L784.527 611.018L783.922 612.679L775.127 609.478Z" fill="#DAD1E9"/>
<path d="M892.715 687.573L892.408 685.831L896.146 685.172L894.024 673.138L891.054 673.662L890.815 672.305C891.542 672.036 892.162 671.759 892.675 671.475C893.202 671.171 893.664 670.843 894.059 670.492L895.672 670.207L898.246 684.802L901.626 684.206L901.933 685.947L892.715 687.573Z" fill="#DAD1E9"/>
<path d="M820.178 550.672L820.024 548.911L823.805 548.58L822.74 536.406L819.736 536.669L819.616 535.297C820.363 535.092 821.005 534.87 821.541 534.632C822.093 534.375 822.581 534.089 823.006 533.773L824.638 533.63L825.929 548.394L829.348 548.095L829.502 549.856L820.178 550.672Z" fill="#DAD1E9"/>
<path d="M459.386 834.77C458.098 835.851 456.617 836.121 454.941 835.58C453.266 835.04 451.532 833.701 449.738 831.563C447.944 829.426 446.938 827.498 446.719 825.781C446.5 824.064 447.034 822.665 448.322 821.585C449.597 820.515 451.061 820.237 452.714 820.751C454.367 821.265 456.09 822.59 457.884 824.728C459.678 826.866 460.695 828.806 460.936 830.55C461.178 832.294 460.661 833.7 459.386 834.77ZM458.283 833.455C458.655 833.143 458.903 832.765 459.028 832.321C459.155 831.852 459.147 831.316 459.003 830.713C458.861 830.085 458.571 829.39 458.134 828.625C457.685 827.848 457.071 826.995 456.291 826.065C455.511 825.136 454.782 824.389 454.106 823.825C453.429 823.262 452.805 822.869 452.234 822.647C451.665 822.4 451.145 822.305 450.672 822.362C450.213 822.408 449.797 822.587 449.425 822.899C449.054 823.211 448.799 823.595 448.66 824.05C448.522 824.506 448.518 825.041 448.649 825.655C448.782 826.245 449.067 826.922 449.505 827.686C449.943 828.45 450.551 829.297 451.331 830.226C452.891 832.085 454.253 833.25 455.418 833.721C456.584 834.168 457.54 834.079 458.283 833.455Z" fill="#DAD1E9"/>
<path d="M1027.17 261.036C1025.52 260.745 1024.36 259.783 1023.69 258.153C1023.03 256.522 1022.94 254.333 1023.43 251.584C1023.91 248.836 1024.74 246.826 1025.92 245.555C1027.09 244.284 1028.5 243.794 1030.16 244.086C1031.8 244.375 1032.95 245.318 1033.62 246.914C1034.29 248.51 1034.38 250.683 1033.9 253.431C1033.41 256.179 1032.58 258.206 1031.4 259.512C1030.22 260.817 1028.81 261.325 1027.17 261.036ZM1027.47 259.347C1027.95 259.431 1028.4 259.378 1028.82 259.188C1029.26 258.984 1029.66 258.633 1030.03 258.135C1030.42 257.623 1030.77 256.954 1031.07 256.127C1031.38 255.284 1031.64 254.265 1031.85 253.07C1032.06 251.875 1032.16 250.837 1032.16 249.957C1032.16 249.076 1032.06 248.346 1031.86 247.765C1031.68 247.171 1031.42 246.711 1031.08 246.386C1030.74 246.063 1030.34 245.86 1029.86 245.776C1029.38 245.692 1028.93 245.743 1028.49 245.93C1028.05 246.117 1027.64 246.457 1027.25 246.953C1026.89 247.434 1026.55 248.087 1026.25 248.914C1025.94 249.74 1025.69 250.751 1025.47 251.946C1025.05 254.335 1025.04 256.128 1025.42 257.323C1025.83 258.503 1026.51 259.178 1027.47 259.347Z" fill="#DAD1E9"/>
<path d="M827.067 500.939C825.487 500.364 824.512 499.216 824.143 497.496C823.773 495.775 824.065 493.603 825.02 490.981C825.974 488.358 827.14 486.523 828.518 485.475C829.895 484.427 831.374 484.19 832.954 484.765C834.518 485.335 835.49 486.463 835.872 488.152C836.253 489.84 835.967 491.995 835.013 494.618C834.058 497.24 832.886 499.092 831.497 500.172C830.107 501.253 828.631 501.509 827.067 500.939ZM827.654 499.327C828.11 499.493 828.562 499.519 829.009 499.405C829.479 499.281 829.938 499.006 830.389 498.579C830.861 498.142 831.319 497.544 831.762 496.783C832.211 496.005 832.643 495.046 833.058 493.906C833.473 492.766 833.755 491.762 833.905 490.894C834.055 490.027 834.083 489.29 833.99 488.684C833.919 488.068 833.741 487.57 833.455 487.189C833.186 486.814 832.823 486.544 832.367 486.378C831.911 486.212 831.451 486.183 830.988 486.291C830.524 486.399 830.059 486.663 829.593 487.084C829.148 487.494 828.704 488.079 828.261 488.84C827.818 489.601 827.389 490.552 826.974 491.692C826.144 493.972 825.817 495.735 825.991 496.979C826.188 498.212 826.742 498.995 827.654 499.327Z" fill="#DAD1E9"/>
<path d="M1078.06 67.9394C1076.48 67.3644 1075.51 66.2164 1075.14 64.4955C1074.77 62.7746 1075.06 60.603 1076.02 57.9806C1076.97 55.3582 1078.14 53.523 1079.52 52.4749C1080.89 51.4269 1082.37 51.1904 1083.95 51.7654C1085.52 52.3345 1086.49 53.4633 1086.87 55.1516C1087.25 56.8399 1086.96 58.9952 1086.01 61.6176C1085.06 64.24 1083.88 66.0915 1082.49 67.1721C1081.1 68.2528 1079.63 68.5085 1078.06 67.9394ZM1078.65 66.3269C1079.11 66.4929 1079.56 66.519 1080.01 66.4051C1080.48 66.2808 1080.94 66.0055 1081.39 65.5791C1081.86 65.1424 1082.32 64.5435 1082.76 63.7825C1083.21 63.0051 1083.64 62.0464 1084.06 60.9062C1084.47 59.7661 1084.75 58.7621 1084.9 57.8943C1085.05 57.0266 1085.08 56.2899 1084.99 55.6841C1084.92 55.0681 1084.74 54.5697 1084.45 54.1891C1084.18 53.8143 1083.82 53.5439 1083.36 53.3779C1082.91 53.2119 1082.45 53.1829 1081.99 53.2909C1081.52 53.3989 1081.06 53.6631 1080.59 54.0835C1080.15 54.4936 1079.7 55.0791 1079.26 55.8402C1078.82 56.6012 1078.39 57.5518 1077.97 58.692C1077.14 60.9723 1076.81 62.7345 1076.99 63.9785C1077.19 65.2121 1077.74 65.9949 1078.65 66.3269Z" fill="#DAD1E9"/>
<path d="M545.938 856.037C544.282 855.745 543.122 854.783 542.459 853.153C541.796 851.522 541.707 849.333 542.192 846.585C542.676 843.836 543.506 841.827 544.681 840.555C545.855 839.284 547.27 838.794 548.926 839.086C550.565 839.375 551.719 840.318 552.388 841.914C553.057 843.511 553.149 845.683 552.664 848.431C552.18 851.179 551.347 853.206 550.167 854.512C548.986 855.817 547.576 856.326 545.938 856.037ZM546.235 854.347C546.713 854.431 547.163 854.378 547.583 854.188C548.024 853.984 548.429 853.633 548.799 853.135C549.188 852.623 549.535 851.954 549.839 851.128C550.146 850.284 550.405 849.265 550.616 848.07C550.827 846.875 550.93 845.837 550.927 844.957C550.924 844.076 550.824 843.346 550.627 842.765C550.45 842.171 550.188 841.711 549.841 841.386C549.51 841.064 549.106 840.86 548.628 840.776C548.15 840.692 547.693 840.743 547.255 840.93C546.817 841.117 546.405 841.458 546.018 841.953C545.652 842.434 545.317 843.087 545.012 843.914C544.708 844.74 544.451 845.751 544.24 846.946C543.819 849.336 543.802 851.128 544.19 852.323C544.598 853.504 545.28 854.178 546.235 854.347Z" fill="#DAD1E9"/>
<path d="M930.581 359.33C928.925 359.039 927.766 358.077 927.103 356.447C926.44 354.816 926.351 352.627 926.835 349.878C927.32 347.13 928.15 345.12 929.324 343.849C930.499 342.578 931.914 342.088 933.57 342.38C935.209 342.669 936.362 343.612 937.031 345.208C937.7 346.804 937.792 348.977 937.308 351.725C936.823 354.473 935.991 356.5 934.81 357.806C933.629 359.111 932.22 359.619 930.581 359.33ZM930.879 357.641C931.357 357.725 931.806 357.672 932.227 357.482C932.668 357.278 933.073 356.927 933.442 356.429C933.832 355.917 934.179 355.248 934.483 354.421C934.79 353.578 935.049 352.559 935.259 351.364C935.47 350.169 935.574 349.131 935.571 348.251C935.568 347.37 935.468 346.64 935.271 346.059C935.094 345.465 934.832 345.005 934.484 344.68C934.154 344.357 933.75 344.154 933.272 344.07C932.794 343.986 932.336 344.037 931.898 344.224C931.46 344.41 931.048 344.751 930.662 345.247C930.295 345.728 929.96 346.381 929.656 347.208C929.352 348.034 929.094 349.045 928.884 350.24C928.462 352.629 928.446 354.422 928.833 355.617C929.241 356.797 929.923 357.472 930.879 357.641Z" fill="#DAD1E9"/>
<path d="M1050.58 159.33C1048.93 159.038 1047.77 158.077 1047.1 156.447C1046.44 154.816 1046.35 152.627 1046.84 149.878C1047.32 147.13 1048.15 145.12 1049.32 143.849C1050.5 142.578 1051.91 142.088 1053.57 142.38C1055.21 142.669 1056.36 143.612 1057.03 145.208C1057.7 146.804 1057.79 148.977 1057.31 151.725C1056.82 154.473 1055.99 156.5 1054.81 157.806C1053.63 159.111 1052.22 159.619 1050.58 159.33ZM1050.88 157.64C1051.36 157.725 1051.81 157.672 1052.23 157.482C1052.67 157.278 1053.07 156.927 1053.44 156.429C1053.83 155.917 1054.18 155.248 1054.48 154.421C1054.79 153.578 1055.05 152.559 1055.26 151.364C1055.47 150.169 1055.57 149.131 1055.57 148.251C1055.57 147.37 1055.47 146.639 1055.27 146.059C1055.09 145.465 1054.83 145.005 1054.48 144.68C1054.15 144.357 1053.75 144.154 1053.27 144.07C1052.79 143.986 1052.34 144.037 1051.9 144.224C1051.46 144.41 1051.05 144.751 1050.66 145.246C1050.3 145.727 1049.96 146.381 1049.66 147.208C1049.35 148.034 1049.09 149.045 1048.88 150.24C1048.46 152.629 1048.45 154.422 1048.83 155.616C1049.24 156.797 1049.92 157.472 1050.88 157.64Z" fill="#DAD1E9"/>
<path d="M96.9423 1037.44C95.2865 1037.73 93.8683 1037.22 92.6877 1035.92C91.5071 1034.61 90.6744 1032.59 90.1898 1029.84C89.7052 1027.09 89.7974 1024.92 90.4664 1023.32C91.1353 1021.73 92.2977 1020.78 93.9535 1020.49C95.5922 1020.2 96.9989 1020.69 98.1735 1021.96C99.3481 1023.23 100.178 1025.24 100.662 1027.99C101.147 1030.74 101.058 1032.93 100.395 1034.56C99.7318 1036.19 98.581 1037.15 96.9423 1037.44ZM96.6443 1035.75C97.1223 1035.67 97.5265 1035.46 97.8569 1035.14C98.2013 1034.8 98.4619 1034.33 98.6387 1033.73C98.8296 1033.12 98.9266 1032.37 98.9297 1031.49C98.9299 1030.59 98.8246 1029.55 98.6139 1028.35C98.4032 1027.16 98.1458 1026.15 97.8417 1025.32C97.5375 1024.49 97.1937 1023.84 96.8102 1023.36C96.4408 1022.87 96.0372 1022.52 95.5994 1022.34C95.1787 1022.15 94.7294 1022.09 94.2515 1022.18C93.7735 1022.26 93.3608 1022.47 93.0133 1022.79C92.6658 1023.12 92.3952 1023.58 92.2013 1024.18C92.0215 1024.75 91.93 1025.48 91.9269 1026.36C91.9237 1027.24 92.0275 1028.28 92.2382 1029.48C92.6596 1031.87 93.2568 1033.56 94.0298 1034.55C94.8169 1035.52 95.6884 1035.92 96.6443 1035.75Z" fill="#DAD1E9"/>
<path d="M915.096 480.772C913.44 481.064 912.022 480.557 910.841 479.252C909.66 477.946 908.828 475.919 908.343 473.171C907.859 470.423 907.951 468.25 908.62 466.654C909.289 465.058 910.451 464.113 912.107 463.822C913.746 463.533 915.152 464.024 916.327 465.295C917.501 466.566 918.331 468.576 918.816 471.324C919.3 474.073 919.211 476.262 918.548 477.893C917.885 479.523 916.734 480.483 915.096 480.772ZM914.798 479.082C915.276 478.998 915.68 478.795 916.01 478.472C916.355 478.13 916.615 477.662 916.792 477.067C916.983 476.453 917.08 475.705 917.083 474.825C917.083 473.927 916.978 472.881 916.767 471.686C916.557 470.491 916.299 469.48 915.995 468.654C915.691 467.827 915.347 467.175 914.964 466.697C914.594 466.199 914.19 465.857 913.753 465.67C913.332 465.48 912.883 465.427 912.405 465.511C911.927 465.596 911.514 465.8 911.167 466.126C910.819 466.451 910.548 466.912 910.355 467.51C910.175 468.087 910.083 468.816 910.08 469.697C910.077 470.577 910.181 471.615 910.392 472.81C910.813 475.2 911.41 476.89 912.183 477.88C912.97 478.85 913.842 479.251 914.798 479.082Z" fill="#DAD1E9"/>
<path d="M718.848 853.078C717.56 854.159 716.079 854.429 714.403 853.889C712.728 853.349 710.994 852.01 709.2 849.872C707.406 847.734 706.4 845.807 706.181 844.09C705.962 842.373 706.496 840.974 707.784 839.893C709.059 838.824 710.523 838.546 712.176 839.059C713.829 839.573 715.552 840.899 717.346 843.037C719.14 845.174 720.157 847.115 720.398 848.859C720.639 850.602 720.123 852.009 718.848 853.078ZM717.745 851.764C718.117 851.452 718.365 851.074 718.49 850.63C718.617 850.161 718.609 849.625 718.465 849.022C718.323 848.394 718.033 847.698 717.595 846.934C717.147 846.157 716.532 845.303 715.753 844.374C714.973 843.444 714.244 842.698 713.568 842.134C712.891 841.57 712.267 841.177 711.696 840.955C711.127 840.709 710.606 840.614 710.134 840.671C709.675 840.717 709.259 840.896 708.887 841.208C708.516 841.52 708.261 841.903 708.122 842.359C707.984 842.814 707.98 843.349 708.111 843.964C708.244 844.553 708.529 845.23 708.967 845.995C709.404 846.759 710.013 847.606 710.793 848.535C712.353 850.394 713.715 851.559 714.88 852.03C716.046 852.476 717.001 852.388 717.745 851.764Z" fill="#DAD1E9"/>
<path d="M830.948 713.02C829.661 714.101 828.179 714.371 826.504 713.831C824.829 713.29 823.094 711.951 821.3 709.814C819.506 707.676 818.5 705.748 818.281 704.031C818.062 702.314 818.597 700.916 819.885 699.835C821.16 698.765 822.623 698.487 824.276 699.001C825.929 699.515 827.653 700.84 829.446 702.978C831.24 705.116 832.258 707.057 832.499 708.8C832.74 710.544 832.223 711.95 830.948 713.02ZM829.845 711.705C830.217 711.393 830.466 711.015 830.591 710.571C830.718 710.102 830.709 709.566 830.565 708.963C830.423 708.336 830.134 707.64 829.696 706.876C829.247 706.098 828.633 705.245 827.853 704.315C827.073 703.386 826.345 702.639 825.668 702.076C824.992 701.512 824.368 701.119 823.797 700.897C823.228 700.65 822.707 700.555 822.234 700.612C821.775 700.658 821.36 700.837 820.988 701.149C820.616 701.461 820.361 701.845 820.223 702.3C820.085 702.756 820.081 703.291 820.212 703.905C820.344 704.495 820.63 705.172 821.067 705.936C821.505 706.7 822.114 707.547 822.894 708.477C824.453 710.335 825.816 711.5 826.98 711.971C828.147 712.418 829.102 712.329 829.845 711.705Z" fill="#DAD1E9"/>
<path d="M755.938 903.037C754.282 902.745 753.122 901.783 752.459 900.153C751.797 898.522 751.707 896.333 752.192 893.585C752.677 890.836 753.506 888.827 754.681 887.555C755.855 886.284 757.271 885.794 758.926 886.086C760.565 886.375 761.719 887.318 762.388 888.914C763.057 890.511 763.149 892.683 762.664 895.431C762.18 898.179 761.347 900.206 760.167 901.512C758.986 902.817 757.576 903.326 755.938 903.037ZM756.235 901.347C756.713 901.431 757.163 901.378 757.583 901.188C758.024 900.984 758.429 900.633 758.799 900.135C759.188 899.623 759.535 898.954 759.839 898.128C760.146 897.284 760.405 896.265 760.616 895.07C760.827 893.875 760.931 892.837 760.927 891.957C760.924 891.076 760.824 890.346 760.627 889.765C760.451 889.171 760.188 888.711 759.841 888.386C759.511 888.064 759.106 887.86 758.628 887.776C758.15 887.692 757.693 887.743 757.255 887.93C756.817 888.117 756.405 888.458 756.018 888.953C755.652 889.434 755.317 890.087 755.013 890.914C754.708 891.74 754.451 892.751 754.24 893.946C753.819 896.336 753.802 898.128 754.19 899.323C754.598 900.504 755.28 901.178 756.235 901.347Z" fill="#DAD1E9"/>
<path d="M652.619 815.642C651.039 816.217 649.554 815.964 648.165 814.884C646.775 813.803 645.603 811.951 644.649 809.329C643.694 806.707 643.408 804.551 643.79 802.863C644.171 801.175 645.152 800.043 646.732 799.468C648.296 798.899 649.766 799.138 651.144 800.186C652.521 801.234 653.687 803.07 654.642 805.692C655.596 808.314 655.889 810.486 655.519 812.207C655.149 813.928 654.182 815.073 652.619 815.642ZM652.032 814.029C652.488 813.863 652.851 813.593 653.12 813.218C653.4 812.821 653.575 812.315 653.646 811.699C653.727 811.06 653.693 810.307 653.543 809.44C653.387 808.556 653.102 807.544 652.687 806.403C652.272 805.263 651.843 804.313 651.4 803.552C650.957 802.791 650.505 802.208 650.045 801.804C649.594 801.377 649.137 801.11 648.674 801.002C648.227 800.888 647.775 800.914 647.319 801.08C646.863 801.246 646.492 801.52 646.206 801.901C645.92 802.281 645.734 802.782 645.647 803.404C645.57 804.004 645.607 804.738 645.756 805.606C645.906 806.474 646.189 807.478 646.604 808.618C647.433 810.898 648.315 812.459 649.248 813.299C650.192 814.118 651.12 814.361 652.032 814.029Z" fill="#DAD1E9"/>
<path d="M828.656 664.31C827.076 664.885 825.591 664.632 824.202 663.551C822.813 662.471 821.641 660.619 820.686 657.997C819.732 655.375 819.445 653.219 819.827 651.531C820.208 649.843 821.189 648.711 822.769 648.136C824.333 647.567 825.803 647.806 827.181 648.854C828.558 649.902 829.724 651.737 830.679 654.36C831.633 656.982 831.926 659.154 831.556 660.875C831.186 662.596 830.22 663.741 828.656 664.31ZM828.069 662.697C828.525 662.531 828.888 662.261 829.157 661.886C829.437 661.489 829.612 660.983 829.683 660.367C829.765 659.728 829.73 658.975 829.58 658.108C829.425 657.224 829.139 656.211 828.724 655.071C828.309 653.931 827.88 652.981 827.437 652.219C826.994 651.458 826.542 650.876 826.082 650.472C825.631 650.045 825.175 649.778 824.711 649.67C824.264 649.556 823.812 649.582 823.356 649.748C822.9 649.914 822.529 650.188 822.243 650.568C821.958 650.949 821.771 651.45 821.684 652.072C821.607 652.672 821.644 653.406 821.794 654.274C821.943 655.141 822.226 656.145 822.641 657.286C823.471 659.566 824.352 661.126 825.286 661.967C826.229 662.786 827.157 663.029 828.069 662.697Z" fill="#DAD1E9"/>
<path d="M393.392 906.26C391.936 907.101 390.43 907.109 388.874 906.286C387.318 905.463 385.842 903.844 384.447 901.427C383.052 899.01 382.395 896.937 382.478 895.208C382.561 893.479 383.33 892.194 384.786 891.354C386.227 890.522 387.717 890.502 389.256 891.295C390.794 892.088 392.261 893.693 393.656 896.11C395.052 898.527 395.717 900.614 395.652 902.373C395.586 904.132 394.833 905.428 393.392 906.26ZM392.534 904.774C392.954 904.531 393.265 904.202 393.465 903.786C393.671 903.346 393.756 902.817 393.719 902.198C393.688 901.556 393.524 900.82 393.225 899.991C392.919 899.148 392.462 898.201 391.855 897.15C391.248 896.099 390.661 895.237 390.092 894.565C389.524 893.892 388.978 893.397 388.454 893.079C387.937 892.737 387.44 892.554 386.965 892.528C386.505 892.493 386.064 892.597 385.644 892.84C385.224 893.083 384.906 893.416 384.691 893.841C384.475 894.265 384.379 894.791 384.401 895.419C384.429 896.023 384.593 896.739 384.891 897.568C385.189 898.396 385.642 899.336 386.248 900.387C387.462 902.488 388.601 903.872 389.666 904.538C390.737 905.181 391.693 905.259 392.534 904.774Z" fill="#DAD1E9"/>
<path d="M884.28 592.647C882.824 593.488 881.318 593.497 879.762 592.674C878.206 591.851 876.731 590.231 875.335 587.814C873.94 585.397 873.284 583.325 873.366 581.596C873.449 579.867 874.218 578.582 875.674 577.741C877.115 576.909 878.605 576.89 880.144 577.683C881.682 578.476 883.149 580.081 884.545 582.497C885.94 584.914 886.605 587.002 886.54 588.761C886.474 590.52 885.721 591.815 884.28 592.647ZM883.422 591.161C883.842 590.919 884.153 590.589 884.353 590.173C884.56 589.734 884.644 589.205 884.607 588.586C884.576 587.943 884.412 587.207 884.114 586.379C883.807 585.535 883.35 584.588 882.743 583.537C882.137 582.486 881.549 581.625 880.981 580.952C880.412 580.28 879.866 579.784 879.342 579.466C878.825 579.125 878.328 578.941 877.853 578.915C877.393 578.881 876.953 578.985 876.532 579.227C876.112 579.47 875.794 579.804 875.579 580.228C875.364 580.653 875.267 581.179 875.289 581.806C875.318 582.41 875.481 583.127 875.779 583.955C876.077 584.784 876.53 585.724 877.137 586.774C878.35 588.876 879.489 590.26 880.554 590.926C881.626 591.568 882.581 591.647 883.422 591.161Z" fill="#DAD1E9"/>
<g filter="url(#filter0_d)">
<path d="M666.441 940.486C675.617 940.486 746.73 961.132 781.139 951.956C815.549 942.78 824.725 955.627 824.725 955.627C790.315 962.508 763.495 989.984 693.969 972.602C666.441 965.72 657.265 940.486 666.441 940.486Z" fill="#ECA24B"/>
<path d="M906.572 671.949C906.026 660.672 905.541 650.636 912.366 652.152C924.651 654.882 944.244 690.097 963.898 725.422C977.276 749.466 990.682 773.561 1001.83 787.496C1015.36 804.41 1052.3 851.727 1070.65 899.901C1089 948.074 1098.18 1000.84 1082.12 1023.78C1057.45 1059.01 996.776 1060 973.438 1058.38L972 1067L971.267 1058.21C970.722 1058.16 970.205 1058.11 969.715 1058.07C953.692 1056.5 958.849 1053.48 970.622 1050.89C960.697 1049.98 953 1043.44 953 1035.5C953 1026.94 961.954 1020 973 1020C984.046 1020 993 1026.94 993 1035.5C993 1040.98 989.328 1045.8 983.786 1048.55C986.491 1048.16 989.261 1047.81 992 1047.5C1014.28 1045 1062.87 1025.91 1059.18 993.954C1054.35 952.119 1040.83 932.016 951.364 934.31C892.036 935.832 855.91 946.432 827.6 954.739C813.22 958.959 800.856 962.587 788.492 964.132C751.789 968.72 715.084 971.014 701.321 950.368C696.836 943.64 714.278 940.2 735.425 936.031C757.537 931.671 783.699 926.512 793.08 915.959C799.51 908.726 795.127 901.386 790.033 892.856C786.04 886.169 781.61 878.751 781.61 870.079C781.61 853.663 789.378 853.752 804.281 853.924C812.286 854.016 822.348 854.132 834.371 851.728C844.005 849.801 840.364 841.679 836.057 832.074C832.16 823.382 827.718 813.476 832.077 805.848C838.371 794.834 865.169 797.85 885.084 800.091C894.204 801.117 901.882 801.981 905.484 801.26C910.831 800.191 907.703 794.136 902.84 784.722C897.271 773.943 889.427 758.761 889.427 741.617C889.427 719.67 894.783 711.65 899.639 704.379C901.889 701.01 904.032 697.802 905.484 693.444C907.342 687.871 906.943 679.622 906.572 671.949Z" fill="#FFD585"/>
<path fill-rule="evenodd" clip-rule="evenodd" d="M938.702 808.895C938.131 808.623 937.888 807.94 938.159 807.369C938.431 806.798 939.114 806.555 939.685 806.826L939.193 807.861C939.685 806.827 939.684 806.826 939.685 806.826L939.709 806.838L939.779 806.871C939.839 806.901 939.929 806.944 940.046 807.001C940.28 807.115 940.624 807.284 941.068 807.507C941.957 807.951 943.247 808.609 944.855 809.463C948.072 811.171 952.567 813.666 957.688 816.816C967.918 823.11 980.697 832.052 990.761 842.598C991.197 843.056 991.18 843.78 990.723 844.217C990.266 844.653 989.541 844.636 989.104 844.179C979.236 833.837 966.645 825.015 956.488 818.766C951.416 815.646 946.964 813.175 943.781 811.485C942.19 810.641 940.917 809.991 940.043 809.554C939.607 809.335 939.27 809.17 939.043 809.059C938.929 809.004 938.843 808.962 938.786 808.935L938.722 808.904L938.702 808.895Z" fill="#ECA24B"/>
<path fill-rule="evenodd" clip-rule="evenodd" d="M869.564 875.007C869.861 874.449 870.555 874.238 871.113 874.535C882.211 880.451 896.839 885.21 908.743 888.495C914.685 890.135 919.93 891.403 923.688 892.26C925.566 892.689 927.073 893.015 928.109 893.234C928.627 893.343 929.027 893.426 929.297 893.481C929.432 893.508 929.535 893.529 929.603 893.543L929.68 893.558L929.705 893.563C929.705 893.563 929.705 893.563 929.484 894.686C929.263 895.81 929.263 895.81 929.262 895.809L929.234 895.804L929.154 895.788C929.083 895.774 928.978 895.753 928.84 895.725C928.565 895.668 928.16 895.585 927.636 895.474C926.589 895.253 925.07 894.925 923.178 894.493C919.395 893.629 914.116 892.353 908.134 890.702C896.19 887.406 881.363 882.594 870.036 876.556C869.478 876.258 869.267 875.565 869.564 875.007ZM930.607 894.908C930.485 895.528 929.882 895.932 929.262 895.809L929.484 894.686L929.705 893.563C930.325 893.685 930.729 894.287 930.607 894.908Z" fill="#ECA24B"/>
<path fill-rule="evenodd" clip-rule="evenodd" d="M822.908 926.157C822.978 925.529 823.544 925.076 824.172 925.146C844.023 927.351 861.942 926.856 885.905 925.141C886.536 925.096 887.084 925.571 887.129 926.202C887.174 926.832 886.7 927.38 886.069 927.425C862.057 929.144 843.976 929.649 823.919 927.421C823.291 927.351 822.838 926.785 822.908 926.157Z" fill="#ECA24B"/>
<path d="M915 1060H913V1075.48H817.16C813.367 1075.48 810.291 1078.55 810.291 1082.35V1107.59H780.449C774.126 1107.59 769 1112.72 769 1119.04V1169.55C769 1175.87 774.126 1181 780.449 1181H1046.59C1052.91 1181 1058.04 1175.87 1058.04 1169.55V1119.04C1058.04 1112.72 1052.91 1107.59 1046.59 1107.59H1016.75V1082.35C1016.75 1078.55 1013.67 1075.48 1009.88 1075.48H915V1060Z" fill="#DEFFBC"/>
<path d="M787.663 1132.81C787.663 1126.48 792.789 1121.36 799.112 1121.36H1028.55C1034.87 1121.36 1040 1126.48 1040 1132.81V1160.38C1040 1166.7 1034.87 1171.82 1028.55 1171.82H799.112C792.789 1171.82 787.663 1166.7 787.663 1160.38V1132.81Z" fill="#64C86E"/>
<path fill-rule="evenodd" clip-rule="evenodd" d="M1028.55 1123.65H799.112C794.054 1123.65 789.953 1127.75 789.953 1132.81V1160.38C789.953 1165.43 794.054 1169.53 799.112 1169.53H1028.55C1033.61 1169.53 1037.71 1165.43 1037.71 1160.38V1132.81C1037.71 1127.75 1033.61 1123.65 1028.55 1123.65ZM799.112 1121.36C792.789 1121.36 787.663 1126.48 787.663 1132.81V1160.38C787.663 1166.7 792.789 1171.82 799.112 1171.82H1028.55C1034.87 1171.82 1040 1166.7 1040 1160.38V1132.81C1040 1126.48 1034.87 1121.36 1028.55 1121.36H799.112Z" fill="#333333"/>
<path d="M810.604 1103.01H1017.06V1107.59H810.604V1103.01Z" fill="#ADD69E"/>
<rect x="818" y="1066" width="191" height="6" fill="#34196C"/>
</g>
</g>
<defs>
<filter id="filter0_d" x="649" y="642" width="455.401" height="557" filterUnits="userSpaceOnUse" color-interpolation-filters="sRGB">
<feFlood flood-opacity="0" result="BackgroundImageFix"/>
<feColorMatrix in="SourceAlpha" type="matrix" values="0 0 0 0 0 0 0 0 0 0 0 0 0 0 0 0 0 0 127 0"/>
<feOffset dy="4"/>
<feGaussianBlur stdDeviation="7"/>
<feColorMatrix type="matrix" values="0 0 0 0 0 0 0 0 0 0 0 0 0 0 0 0 0 0 0.15 0"/>
<feBlend mode="normal" in2="BackgroundImageFix" result="effect1_dropShadow"/>
<feBlend mode="normal" in="SourceGraphic" in2="effect1_dropShadow" result="shape"/>
</filter>
<radialGradient id="paint0_radial" cx="0" cy="0" r="1" gradientUnits="userSpaceOnUse" gradientTransform="translate(-1111.5 -619.5) rotate(49.1315) scale(2232.84 3688.09)">
<stop offset="0.624175" stop-color="#1A093E"/>
<stop offset="0.818268" stop-color="#2F1E52"/>
<stop offset="1" stop-color="#4B3676"/>
</radialGradient>
<clipPath id="clip0">
<rect width="1125" height="1193" fill="white"/>
</clipPath>
</defs>
</svg>
