<svg width="366" height="368" viewBox="0 0 366 368" fill="none" xmlns="http://www.w3.org/2000/svg">
<rect width="366" height="368" fill="white"/>
<mask id="mask0" mask-type="alpha" maskUnits="userSpaceOnUse" x="155" y="236" width="85" height="85">
<path d="M240 250.721C240 250.389 239.835 250.079 239.56 249.893L219.275 236.186C219.096 236.065 218.884 236.005 218.669 236.015L155.954 238.924C155.42 238.949 155 239.389 155 239.923V302.802C155 303.081 155.117 303.348 155.323 303.537L173.693 320.458C173.89 320.638 174.15 320.733 174.416 320.721L239.045 317.784C239.579 317.759 240 317.319 240 316.785V250.721Z" fill="#34196C"/>
</mask>
<g mask="url(#mask0)">
<path d="M155 239L174.5 253.24L174.7 320.14L156.014 303.636C155.369 303.066 155 302.247 155 301.387V239Z" fill="#C77149"/>
<path d="M239 250.1L174.5 253.24L155 239L219 236L239 250.1Z" fill="#C97551"/>
<path d="M240 251.833C240 250.693 239.048 249.783 237.909 249.835L175.909 252.653C174.841 252.702 174 253.582 174 254.651V318.647C174 319.787 174.952 320.697 176.091 320.645L238.091 317.827C239.159 317.778 240 316.898 240 315.829V251.833Z" fill="#DBA887"/>
<g filter="url(#filter0_d)">
<path d="M230.887 258.428L185.887 260.468C184.551 260.528 183.5 261.629 183.5 262.965V309.409C183.5 310.835 184.69 311.971 186.113 311.907L231.113 309.867C232.449 309.807 233.5 308.706 233.5 307.37V260.926C233.5 259.501 232.31 258.364 230.887 258.428Z" stroke="#FFD62C" stroke-width="3"/>
</g>
<g filter="url(#filter1_d)">
<path d="M217.854 296.022C220.043 295.984 221.154 296.894 221.187 298.754C221.22 300.644 220.141 301.608 217.952 301.646L202.564 301.915C200.344 301.953 199.218 301.028 199.185 299.138C199.153 297.278 200.246 296.329 202.466 296.29L206.65 296.217L206.329 277.815L202.411 280.269C201.966 280.547 201.519 280.69 201.069 280.698C200.319 280.711 199.668 280.407 199.117 279.786C198.597 279.165 198.329 278.465 198.316 277.685C198.297 276.635 198.748 275.832 199.669 275.276L206.703 270.878C207.742 270.229 208.786 269.896 209.836 269.878C210.826 269.861 211.641 270.161 212.282 270.78C212.923 271.369 213.252 272.189 213.27 273.238L213.669 296.095L217.854 296.022Z" fill="#FFD62C"/>
</g>
</g>
<mask id="mask1" mask-type="alpha" maskUnits="userSpaceOnUse" x="88" y="239" width="85" height="85">
<path d="M173 253.721C173 253.389 172.835 253.079 172.56 252.893L152.275 239.186C152.096 239.065 151.884 239.005 151.669 239.015L88.9537 241.924C88.42 241.949 88 242.389 88 242.923V305.802C88 306.081 88.117 306.348 88.3225 306.537L106.693 323.458C106.89 323.638 107.15 323.733 107.416 323.721L172.045 320.784C172.579 320.759 173 320.319 173 319.785V253.721Z" fill="#34196C"/>
</mask>
<g mask="url(#mask1)">
<path d="M88.0002 242L107.5 256.24L107.7 323.14L89.0142 306.636C88.3695 306.066 88.0002 305.247 88.0002 304.387V242Z" fill="#CD7D59"/>
<path d="M172 253.1L107.5 256.24L88 242L152 239L172 253.1Z" fill="#D99C80"/>
<path d="M173 254.833C173 253.693 172.048 252.783 170.909 252.835L108.909 255.653C107.841 255.702 107 256.582 107 257.651V321.647C107 322.787 107.952 323.697 109.091 323.645L171.091 320.827C172.159 320.778 173 319.898 173 318.829V254.833Z" fill="#EBBDAA"/>
<g filter="url(#filter2_d)">
<path d="M163.887 261.428L118.887 263.468C117.551 263.528 116.5 264.629 116.5 265.965V312.409C116.5 313.835 117.69 314.971 119.113 314.907L164.113 312.867C165.449 312.807 166.5 311.706 166.5 310.37V263.926C166.5 262.501 165.31 261.364 163.887 261.428Z" stroke="#34196C" stroke-width="3"/>
</g>
<g filter="url(#filter3_d)">
<path d="M141.69 305.213C137.851 305.28 134.887 303.936 132.799 301.182C130.74 298.428 129.665 294.411 129.573 289.132C129.481 283.883 130.416 279.846 132.377 277.021C134.368 274.196 137.283 272.75 141.122 272.683C144.962 272.616 147.911 273.959 149.969 276.714C152.058 279.468 153.148 283.47 153.239 288.719C153.331 293.998 152.382 298.05 150.391 300.875C148.43 303.7 145.53 305.146 141.69 305.213ZM141.597 299.859C143.337 299.828 144.581 298.936 145.331 297.183C146.11 295.429 146.467 292.647 146.4 288.838C146.333 284.999 145.88 282.231 145.04 280.536C144.23 278.839 142.956 278.007 141.216 278.037C139.476 278.067 138.217 278.959 137.437 280.713C136.687 282.437 136.345 285.203 136.412 289.012C136.478 292.822 136.917 295.59 137.727 297.316C138.567 299.041 139.857 299.889 141.597 299.859Z" fill="#34196C"/>
</g>
</g>
<mask id="mask2" mask-type="alpha" maskUnits="userSpaceOnUse" x="21" y="242" width="85" height="85">
<path d="M106 256.721C106 256.389 105.835 256.079 105.56 255.893L85.2749 242.186C85.0964 242.065 84.8838 242.005 84.6686 242.015L21.9537 244.924C21.42 244.949 21 245.389 21 245.923V308.802C21 309.081 21.117 309.348 21.3225 309.537L39.6935 326.458C39.8896 326.638 40.1499 326.733 40.4163 326.721L105.045 323.784C105.579 323.759 106 323.319 106 322.785V256.721Z" fill="#34196C"/>
</mask>
<g mask="url(#mask2)">
<path d="M21.0002 245L40.5002 259.24L40.7002 326.14L22.0142 309.636C21.3695 309.066 21.0002 308.247 21.0002 307.387V245Z" fill="#CD7D59"/>
<path d="M105 256.1L40.5 259.24L21 245L85 242L105 256.1Z" fill="#D99C80"/>
<path d="M106 257.833C106 256.693 105.048 255.783 103.909 255.835L41.9092 258.653C40.841 258.702 40 259.582 40 260.651V324.647C40 325.787 40.9518 326.697 42.0908 326.645L104.091 323.827C105.159 323.778 106 322.898 106 321.829V257.833Z" fill="#EEC0A2"/>
<g filter="url(#filter4_d)">
<path d="M96.8868 264.428L51.8868 266.468C50.5515 266.528 49.5 267.629 49.5 268.965V315.409C49.5 316.835 50.6895 317.971 52.1132 317.907L97.1132 315.867C98.4485 315.807 99.5 314.706 99.5 313.37V266.926C99.5 265.501 98.3105 264.364 96.8868 264.428Z" stroke="#34196C" stroke-width="3"/>
</g>
<g filter="url(#filter5_d)">
<path d="M83.8536 302.022C86.0433 301.984 87.1544 302.894 87.1868 304.754C87.2198 306.644 86.1415 307.608 83.9518 307.646L68.5641 307.915C66.3445 307.953 65.2182 307.028 65.1852 305.138C65.1527 303.278 66.2463 302.329 68.466 302.29L72.6503 302.217L72.3291 283.815L68.4113 286.269C67.9661 286.547 67.5186 286.69 67.0686 286.698C66.3187 286.711 65.6683 286.407 65.1174 285.786C64.5965 285.165 64.3292 284.465 64.3156 283.685C64.2973 282.635 64.7484 281.832 65.6688 281.276L72.7031 276.878C73.7419 276.229 74.7863 275.896 75.8361 275.878C76.826 275.861 77.6413 276.161 78.2822 276.78C78.9226 277.369 79.252 278.189 79.2703 279.238L79.6693 302.095L83.8536 302.022Z" fill="#34196C"/>
</g>
</g>
<mask id="mask3" mask-type="alpha" maskUnits="userSpaceOnUse" x="264" y="240" width="81" height="82">
<path d="M264 251.238C264 250.897 264.174 250.579 264.462 250.395L280.478 240.17C280.651 240.06 280.855 240.005 281.061 240.014L344.045 242.873C344.579 242.897 345 243.337 345 243.872V307.295C345 307.578 344.88 307.848 344.669 308.038L330.305 320.966C330.109 321.142 329.853 321.233 329.59 321.221L264.955 318.284C264.421 318.259 264 317.819 264 317.285V251.238Z" fill="#34196C"/>
</mask>
<g mask="url(#mask3)">
<path d="M345 242.74L329.5 253.74L329.3 320.64L344.028 307.132C344.647 306.564 345 305.761 345 304.921V242.74Z" fill="#E9B788"/>
<path d="M265 250.6L329.5 253.74L346 242.24L282 239.24L265 250.6Z" fill="#FDCB92"/>
<path d="M264 252.333C264 251.193 264.952 250.283 266.091 250.335L328.091 253.153C329.159 253.202 330 254.082 330 255.151V319.147C330 320.287 329.048 321.197 327.909 321.145L265.909 318.327C264.841 318.278 264 317.398 264 316.329V252.333Z" fill="#DAA480"/>
<g filter="url(#filter6_d)">
<path d="M273.113 258.928L318.113 260.968C319.449 261.028 320.5 262.128 320.5 263.465V309.909C320.5 311.334 319.31 312.471 317.887 312.407L272.887 310.367C271.551 310.306 270.5 309.206 270.5 307.869V261.425C270.5 260 271.69 258.863 273.113 258.928Z" stroke="#FFD62C" stroke-width="3"/>
</g>
<g filter="url(#filter7_d)">
<path d="M295.03 302.636C298.87 302.636 301.81 301.241 303.85 298.451C305.86 295.661 306.865 291.626 306.865 286.346C306.865 281.096 305.86 277.076 303.85 274.286C301.81 271.496 298.87 270.101 295.03 270.101C291.19 270.101 288.265 271.496 286.255 274.286C284.215 277.076 283.195 281.096 283.195 286.346C283.195 291.626 284.215 295.661 286.255 298.451C288.265 301.241 291.19 302.636 295.03 302.636ZM295.03 297.281C293.29 297.281 292.03 296.411 291.25 294.671C290.44 292.931 290.035 290.156 290.035 286.346C290.035 282.506 290.44 279.731 291.25 278.021C292.03 276.311 293.29 275.456 295.03 275.456C296.77 275.456 298.045 276.326 298.855 278.066C299.635 279.776 300.025 282.536 300.025 286.346C300.025 290.156 299.635 292.931 298.855 294.671C298.045 296.411 296.77 297.281 295.03 297.281Z" fill="#FFD62C"/>
</g>
</g>
<mask id="mask4" mask-type="alpha" maskUnits="userSpaceOnUse" x="52" y="174" width="81" height="82">
<path d="M52 185.238C52 184.897 52.1742 184.579 52.4619 184.395L68.4777 174.17C68.6515 174.06 68.8552 174.005 69.0612 174.014L132.045 176.873C132.579 176.897 133 177.337 133 177.872V241.295C133 241.578 132.88 241.848 132.669 242.038L118.305 254.966C118.109 255.142 117.853 255.233 117.59 255.221L52.9546 252.284C52.4205 252.259 52 251.819 52 251.285V185.238Z" fill="#34196C"/>
</mask>
<g mask="url(#mask4)">
<path d="M133 176.74L117.5 187.74L117.3 254.64L132.028 241.132C132.647 240.564 133 239.761 133 238.921V176.74Z" fill="#D2A57B"/>
<path d="M53 184.6L117.5 187.74L134 176.24L70 173.24L53 184.6Z" fill="#E6AE84"/>
<path d="M52 186.333C52 185.193 52.9518 184.283 54.0908 184.335L116.091 187.153C117.159 187.202 118 188.082 118 189.151V253.147C118 254.287 117.048 255.197 115.909 255.145L53.9092 252.327C52.841 252.278 52 251.398 52 250.329V186.333Z" fill="#F2BE94"/>
<g filter="url(#filter8_d)">
<path d="M61.1132 192.928L106.113 194.968C107.449 195.028 108.5 196.128 108.5 197.465V243.909C108.5 245.334 107.31 246.471 105.887 246.407L60.8868 244.367C59.5515 244.306 58.5 243.206 58.5 241.869V195.425C58.5 194 59.6895 192.863 61.1132 192.928Z" stroke="#FFD62C" stroke-width="3"/>
</g>
<g filter="url(#filter9_d)">
<path d="M94.1478 203.538C95.1976 203.556 96.032 203.886 96.6509 204.527C97.2698 205.168 97.5701 206.013 97.5518 207.063L97.1112 232.304C97.0929 233.354 96.763 234.203 96.1216 234.852C95.4807 235.471 94.6353 235.771 93.5855 235.753C92.5356 235.735 91.7012 235.405 91.0823 234.764C90.4934 234.124 90.2084 233.264 90.2272 232.184L90.4032 222.106L75.7804 221.85L75.6045 231.929C75.5861 232.979 75.2563 233.828 74.6148 234.477C73.9739 235.096 73.1436 235.396 72.1237 235.379C71.0739 235.36 70.2395 235.031 69.6206 234.39C69.0017 233.749 68.7017 232.888 68.7205 231.809L69.1611 206.567C69.1794 205.518 69.509 204.683 70.1499 204.064C70.7908 203.445 71.6362 203.145 72.686 203.163C73.7359 203.182 74.5553 203.511 75.1442 204.152C75.7631 204.792 76.0634 205.638 76.0451 206.688L75.8778 216.271L90.5005 216.526L90.6678 206.943C90.6861 205.893 91.0008 205.058 91.6117 204.439C92.2526 203.82 93.0979 203.52 94.1478 203.538Z" fill="#FFD62C"/>
</g>
</g>
<mask id="mask5" mask-type="alpha" maskUnits="userSpaceOnUse" x="52" y="174" width="81" height="82">
<path d="M52 185.238C52 184.897 52.1742 184.579 52.4619 184.395L68.4777 174.17C68.6515 174.06 68.8552 174.005 69.0612 174.014L132.045 176.873C132.579 176.897 133 177.337 133 177.872V241.295C133 241.578 132.88 241.848 132.669 242.038L118.305 254.966C118.109 255.142 117.853 255.233 117.59 255.221L52.9546 252.284C52.4205 252.259 52 251.819 52 251.285V185.238Z" fill="#34196C"/>
</mask>
<g mask="url(#mask5)">
<path d="M133 176.74L117.5 187.74L117.3 254.64L132.028 241.132C132.647 240.564 133 239.761 133 238.921V176.74Z" fill="#D2A57B"/>
<path d="M53 184.6L117.5 187.74L134 176.24L70 173.24L53 184.6Z" fill="#E6AE84"/>
<path d="M52 186.333C52 185.193 52.9518 184.283 54.0908 184.335L116.091 187.153C117.159 187.202 118 188.082 118 189.151V253.147C118 254.287 117.048 255.197 115.909 255.145L53.9092 252.327C52.841 252.278 52 251.398 52 250.329V186.333Z" fill="#E2B492"/>
<g filter="url(#filter10_d)">
<path d="M61.1132 192.928L106.113 194.968C107.449 195.028 108.5 196.128 108.5 197.465V243.909C108.5 245.334 107.31 246.471 105.887 246.407L60.8868 244.367C59.5515 244.306 58.5 243.206 58.5 241.869V195.425C58.5 194 59.6895 192.863 61.1132 192.928Z" stroke="#FFD62C" stroke-width="3"/>
</g>
<g filter="url(#filter11_d)">
<path d="M94.1478 203.538C95.1976 203.556 96.032 203.886 96.6509 204.527C97.2698 205.168 97.5701 206.013 97.5518 207.063L97.1112 232.304C97.0929 233.354 96.763 234.203 96.1216 234.852C95.4807 235.471 94.6353 235.771 93.5855 235.753C92.5356 235.735 91.7012 235.405 91.0823 234.764C90.4934 234.124 90.2084 233.264 90.2272 232.184L90.4032 222.106L75.7804 221.85L75.6045 231.929C75.5861 232.979 75.2563 233.828 74.6148 234.477C73.9739 235.096 73.1436 235.396 72.1237 235.379C71.0739 235.36 70.2395 235.031 69.6206 234.39C69.0017 233.749 68.7017 232.888 68.7205 231.809L69.1611 206.567C69.1794 205.518 69.509 204.683 70.1499 204.064C70.7908 203.445 71.6362 203.145 72.686 203.163C73.7359 203.182 74.5553 203.511 75.1442 204.152C75.7631 204.792 76.0634 205.638 76.0451 206.688L75.8778 216.271L90.5005 216.526L90.6678 206.943C90.6861 205.893 91.0008 205.058 91.6117 204.439C92.2526 203.82 93.0979 203.52 94.1478 203.538Z" fill="#FFD62C"/>
</g>
</g>
<mask id="mask6" mask-type="alpha" maskUnits="userSpaceOnUse" x="148" y="174" width="81" height="82">
<path d="M229 185.238C229 184.897 228.826 184.579 228.538 184.395L212.522 174.17C212.349 174.06 212.145 174.005 211.939 174.014L148.955 176.873C148.421 176.897 148 177.337 148 177.872V241.295C148 241.578 148.12 241.848 148.331 242.038L162.695 254.966C162.891 255.142 163.147 255.233 163.41 255.221L228.045 252.284C228.579 252.259 229 251.819 229 251.285V185.238Z" fill="#34196C"/>
</mask>
<g mask="url(#mask6)">
<path d="M148 176.74L163.5 187.74L163.7 254.64L148.972 241.132C148.353 240.564 148 239.761 148 238.921V176.74Z" fill="#D2A57B"/>
<path d="M228 184.6L163.5 187.74L147 176.24L211 173.24L228 184.6Z" fill="#E6AE84"/>
<path d="M229 186.333C229 185.193 228.048 184.283 226.909 184.335L164.909 187.153C163.841 187.202 163 188.082 163 189.151V253.147C163 254.287 163.952 255.197 165.091 255.145L227.091 252.327C228.159 252.278 229 251.398 229 250.329V186.333Z" fill="#F2BE94"/>
<g filter="url(#filter12_d)">
<path d="M219.887 192.928L174.887 194.968C173.551 195.028 172.5 196.128 172.5 197.465V243.909C172.5 245.334 173.69 246.471 175.113 246.407L220.113 244.367C221.449 244.306 222.5 243.206 222.5 241.869V195.425C222.5 194 221.31 192.863 219.887 192.928Z" stroke="#34196C" stroke-width="3"/>
</g>
<g filter="url(#filter13_d)">
<path d="M206.847 229.766C209.037 229.805 210.116 230.754 210.083 232.613C210.05 234.503 208.939 235.429 206.749 235.391L191.362 235.122C189.142 235.083 188.049 234.119 188.082 232.229C188.114 230.37 189.24 229.459 191.46 229.498L195.644 229.571L195.965 211.169L191.964 213.484C191.51 213.746 191.057 213.873 190.607 213.866C189.858 213.852 189.218 213.526 188.689 212.887C188.19 212.248 187.948 211.539 187.961 210.759C187.98 209.709 188.458 208.922 189.398 208.399L196.581 204.248C197.642 203.637 198.697 203.34 199.747 203.358C200.737 203.376 201.541 203.705 202.16 204.346C202.78 204.957 203.08 205.787 203.062 206.837L202.663 229.693L206.847 229.766Z" fill="#34196C"/>
</g>
</g>
<mask id="mask7" mask-type="alpha" maskUnits="userSpaceOnUse" x="55" y="107" width="81" height="80">
<path d="M55 116.318C55 115.934 55.2196 115.584 55.5652 115.417L72.772 107.11C72.9216 107.038 73.0869 107.004 73.253 107.012L135.046 109.872C135.58 109.897 136 110.337 136 110.871V175.219C136 175.546 135.841 175.852 135.573 176.039L121.279 186.045C121.098 186.171 120.88 186.235 120.66 186.225L55.9546 183.284C55.4205 183.259 55 182.819 55 182.285V116.318Z" fill="#34196C"/>
</mask>
<g mask="url(#mask7)">
<path d="M136 111.74L120.5 118.74L120.3 185.64L134.657 176.13C135.495 175.574 136 174.635 136 173.629V111.74Z" fill="#E1B082"/>
<path d="M56 115.6L120.5 118.74L142.5 109L73 107.24L56 115.6Z" fill="#E6AE84"/>
<path d="M55 117.333C55 116.193 55.9518 115.283 57.0908 115.335L119.091 118.153C120.159 118.202 121 119.082 121 120.151V184.147C121 185.287 120.048 186.197 118.909 186.145L56.9092 183.327C55.841 183.278 55 182.398 55 181.329V117.333Z" fill="#F7C7A0"/>
<g filter="url(#filter14_d)">
<path d="M64.1132 123.928L109.113 125.968C110.449 126.028 111.5 127.128 111.5 128.465V174.909C111.5 176.334 110.31 177.471 108.887 177.407L63.8868 175.367C62.5515 175.306 61.5 174.206 61.5 172.869V126.425C61.5 125 62.6895 123.863 64.1132 123.928Z" stroke="#34196C" stroke-width="3"/>
</g>
<g filter="url(#filter15_d)">
<path d="M97.7169 134.808C98.7068 134.826 99.4959 135.169 100.084 135.84C100.703 136.481 101.004 137.311 100.986 138.331L100.545 163.572C100.527 164.622 100.197 165.471 99.5558 166.12C98.9449 166.74 98.1445 167.041 97.1546 167.023C96.0748 167.004 95.2117 166.599 94.5654 165.808L79.8297 146.243L79.5336 163.205C79.5153 164.255 79.2004 165.105 78.589 165.754C78.008 166.374 77.2227 166.675 76.2328 166.658C75.243 166.641 74.4536 166.312 73.8647 165.672C73.2763 165.001 72.9912 164.141 73.0096 163.091L73.4502 137.85C73.468 136.83 73.7823 136.011 74.3932 135.391C75.0346 134.742 75.8503 134.427 76.8401 134.444C77.95 134.463 78.798 134.868 79.3843 135.658L94.1225 155.089L94.417 138.216C94.4348 137.196 94.7491 136.377 95.36 135.757C95.9715 135.108 96.7571 134.791 97.7169 134.808Z" fill="#34196C"/>
</g>
</g>
<mask id="mask8" mask-type="alpha" maskUnits="userSpaceOnUse" x="231" y="73" width="99" height="100">
<path d="M232.009 116.801C231.898 116.449 231.985 116.044 232.234 115.756L245.871 99.9996C245.98 99.8733 246.115 99.7763 246.263 99.7173L311.327 73.7736C311.806 73.5826 312.311 73.8265 312.47 74.3252L329.177 126.993C329.273 127.295 329.223 127.64 329.043 127.917L317.824 145.171C317.704 145.355 317.534 145.497 317.341 145.574L250.551 172.201C250.072 172.392 249.567 172.148 249.409 171.649L232.009 116.801Z" fill="#34196C"/>
</mask>
<g mask="url(#mask8)">
<path d="M309.328 73.5748L294.829 91.202L314.667 152.147L327.515 132.637C328.055 131.817 328.199 130.791 327.901 129.888L309.328 73.5748Z" fill="#D2A57B"/>
<path d="M232.521 109.049L294.978 86.5395L307.878 72.0684L245.934 94.4857L232.521 109.049Z" fill="#E6AE84"/>
<path d="M233.111 117.431C232.778 116.382 233.338 115.178 234.345 114.776L299.026 88.9539C299.984 88.5715 300.994 89.059 301.31 90.0567L318.197 143.366C318.53 144.415 317.97 145.619 316.963 146.021L252.282 171.844C251.324 172.226 250.314 171.738 249.998 170.741L233.111 117.431Z" fill="#F2BE94"/>
<g filter="url(#filter16_d)">
<path d="M243.673 118.896L291.342 99.8611C292.54 99.3829 293.802 99.9924 294.197 101.24L306.308 139.471C306.724 140.782 306.024 142.288 304.765 142.79L257.096 161.825C255.899 162.303 254.637 161.694 254.242 160.447L242.13 122.215C241.715 120.904 242.415 119.399 243.673 118.896Z" stroke="#34196C" stroke-width="3"/>
</g>
<g filter="url(#filter17_d)">
<path d="M282.917 139.876C284.847 139.063 286.071 139.528 286.588 141.271C287.113 143.042 286.41 144.335 284.481 145.148L270.919 150.864C268.962 151.688 267.721 151.215 267.196 149.443C266.679 147.7 267.399 146.416 269.355 145.592L273.043 144.037L267.929 126.787L265.102 130.493C264.78 130.913 264.421 131.207 264.025 131.374C263.364 131.652 262.708 131.597 262.057 131.207C261.433 130.806 261.012 130.239 260.795 129.508C260.503 128.524 260.692 127.606 261.362 126.755L266.439 120.107C267.189 119.127 268.027 118.442 268.952 118.052C269.825 117.684 270.626 117.678 271.356 118.035C272.078 118.363 272.585 119.02 272.877 120.004L279.23 141.43L282.917 139.876Z" fill="#34196C"/>
</g>
</g>
<mask id="mask9" mask-type="alpha" maskUnits="userSpaceOnUse" x="74" y="41" width="81" height="76">
<path d="M155 46.4629C155 46.0078 154.693 45.61 154.252 45.4952L137.15 41.039C137.05 41.0131 136.948 41.0027 136.846 41.008L74.9483 44.212C74.4168 44.2395 74 44.6784 74 45.2106V108.122C74 108.501 74.214 108.847 74.5528 109.017L88.7673 116.124C88.9199 116.2 89.0895 116.236 89.2599 116.228L154.045 113.284C154.579 113.259 155 112.819 155 112.285V46.4629Z" fill="#34196C"/>
</mask>
<g mask="url(#mask9)">
<path d="M74 44.5L89.5002 48.7401L89.7002 115.64L75.7211 109.051C74.6706 108.556 74.0002 107.499 74.0002 106.338L74 44.5Z" fill="#FEE1C1"/>
<path d="M154 45.6L89.5 48.74L73 44.24L137 41.3999L154 45.6Z" fill="#E6AE84"/>
<path d="M155 47.333C155 46.1927 154.048 45.2833 152.909 45.335L90.9092 48.1532C89.841 48.2018 89 49.0819 89 50.1511V114.147C89 115.287 89.9518 116.197 91.0908 116.145L153.091 113.327C154.159 113.278 155 112.398 155 111.329V47.333Z" fill="#F1C19B"/>
<g filter="url(#filter18_d)">
<path d="M145.887 53.928L100.887 55.9677C99.5515 56.0282 98.5 57.1284 98.5 58.4651V104.909C98.5 106.334 99.6895 107.471 101.113 107.407L146.113 105.367C147.449 105.306 148.5 104.206 148.5 102.869V56.4254C148.5 55.0003 147.31 53.8634 145.887 53.928Z" stroke="#FFD62C" stroke-width="3"/>
</g>
<g filter="url(#filter19_d)">
<path d="M124.784 97.6426C120.944 97.7096 117.981 96.3661 115.892 93.6122C113.834 90.8577 112.758 86.8408 112.666 81.5616C112.575 76.3124 113.509 72.2755 115.47 69.4508C117.461 66.6257 120.377 65.1796 124.216 65.1125C128.055 65.0455 131.004 66.3893 133.063 69.1438C135.151 71.8977 136.241 75.8993 136.333 81.1485C136.425 86.4277 135.475 90.4799 133.484 93.3051C131.523 96.1297 128.623 97.5756 124.784 97.6426ZM124.69 92.2884C126.43 92.258 127.675 91.3662 128.424 89.6128C129.204 87.859 129.56 85.0773 129.494 81.2679C129.427 77.4285 128.973 74.661 128.134 72.9654C127.324 71.2692 126.049 70.4364 124.309 70.4667C122.57 70.4971 121.31 71.3892 120.531 73.1431C119.781 74.8664 119.439 77.6328 119.505 81.4422C119.572 85.2517 120.01 88.0194 120.82 89.7456C121.661 91.4712 122.951 92.3188 124.69 92.2884Z" fill="#FFD62C"/>
</g>
</g>
<defs>
<filter id="filter0_d" x="181" y="256.926" width="55" height="58.4839" filterUnits="userSpaceOnUse" color-interpolation-filters="sRGB">
<feFlood flood-opacity="0" result="BackgroundImageFix"/>
<feColorMatrix in="SourceAlpha" type="matrix" values="0 0 0 0 0 0 0 0 0 0 0 0 0 0 0 0 0 0 127 0"/>
<feOffset dy="1"/>
<feGaussianBlur stdDeviation="0.5"/>
<feColorMatrix type="matrix" values="0 0 0 0 0 0 0 0 0 0 0 0 0 0 0 0 0 0 0.15 0"/>
<feBlend mode="normal" in2="BackgroundImageFix" result="effect1_dropShadow"/>
<feBlend mode="normal" in="SourceGraphic" in2="effect1_dropShadow" result="shape"/>
</filter>
<filter id="filter1_d" x="197.315" y="269.877" width="24.8725" height="34.0387" filterUnits="userSpaceOnUse" color-interpolation-filters="sRGB">
<feFlood flood-opacity="0" result="BackgroundImageFix"/>
<feColorMatrix in="SourceAlpha" type="matrix" values="0 0 0 0 0 0 0 0 0 0 0 0 0 0 0 0 0 0 127 0"/>
<feOffset dy="1"/>
<feGaussianBlur stdDeviation="0.5"/>
<feColorMatrix type="matrix" values="0 0 0 0 0 0 0 0 0 0 0 0 0 0 0 0 0 0 0.15 0"/>
<feBlend mode="normal" in2="BackgroundImageFix" result="effect1_dropShadow"/>
<feBlend mode="normal" in="SourceGraphic" in2="effect1_dropShadow" result="shape"/>
</filter>
<filter id="filter2_d" x="114" y="259.926" width="55" height="58.4839" filterUnits="userSpaceOnUse" color-interpolation-filters="sRGB">
<feFlood flood-opacity="0" result="BackgroundImageFix"/>
<feColorMatrix in="SourceAlpha" type="matrix" values="0 0 0 0 0 0 0 0 0 0 0 0 0 0 0 0 0 0 127 0"/>
<feOffset dy="1"/>
<feGaussianBlur stdDeviation="0.5"/>
<feColorMatrix type="matrix" values="0 0 0 0 0 0 0 0 0 0 0 0 0 0 0 0 0 0 0.15 0"/>
<feBlend mode="normal" in2="BackgroundImageFix" result="effect1_dropShadow"/>
<feBlend mode="normal" in="SourceGraphic" in2="effect1_dropShadow" result="shape"/>
</filter>
<filter id="filter3_d" x="128.566" y="272.68" width="25.6786" height="34.5348" filterUnits="userSpaceOnUse" color-interpolation-filters="sRGB">
<feFlood flood-opacity="0" result="BackgroundImageFix"/>
<feColorMatrix in="SourceAlpha" type="matrix" values="0 0 0 0 0 0 0 0 0 0 0 0 0 0 0 0 0 0 127 0"/>
<feOffset dy="1"/>
<feGaussianBlur stdDeviation="0.5"/>
<feColorMatrix type="matrix" values="0 0 0 0 0 0 0 0 0 0 0 0 0 0 0 0 0 0 0.15 0"/>
<feBlend mode="normal" in2="BackgroundImageFix" result="effect1_dropShadow"/>
<feBlend mode="normal" in="SourceGraphic" in2="effect1_dropShadow" result="shape"/>
</filter>
<filter id="filter4_d" x="47" y="262.926" width="55" height="58.4839" filterUnits="userSpaceOnUse" color-interpolation-filters="sRGB">
<feFlood flood-opacity="0" result="BackgroundImageFix"/>
<feColorMatrix in="SourceAlpha" type="matrix" values="0 0 0 0 0 0 0 0 0 0 0 0 0 0 0 0 0 0 127 0"/>
<feOffset dy="1"/>
<feGaussianBlur stdDeviation="0.5"/>
<feColorMatrix type="matrix" values="0 0 0 0 0 0 0 0 0 0 0 0 0 0 0 0 0 0 0.15 0"/>
<feBlend mode="normal" in2="BackgroundImageFix" result="effect1_dropShadow"/>
<feBlend mode="normal" in="SourceGraphic" in2="effect1_dropShadow" result="shape"/>
</filter>
<filter id="filter5_d" x="63.3149" y="275.877" width="24.8725" height="34.0387" filterUnits="userSpaceOnUse" color-interpolation-filters="sRGB">
<feFlood flood-opacity="0" result="BackgroundImageFix"/>
<feColorMatrix in="SourceAlpha" type="matrix" values="0 0 0 0 0 0 0 0 0 0 0 0 0 0 0 0 0 0 127 0"/>
<feOffset dy="1"/>
<feGaussianBlur stdDeviation="0.5"/>
<feColorMatrix type="matrix" values="0 0 0 0 0 0 0 0 0 0 0 0 0 0 0 0 0 0 0.15 0"/>
<feBlend mode="normal" in2="BackgroundImageFix" result="effect1_dropShadow"/>
<feBlend mode="normal" in="SourceGraphic" in2="effect1_dropShadow" result="shape"/>
</filter>
<filter id="filter6_d" x="268" y="257.425" width="55" height="58.4839" filterUnits="userSpaceOnUse" color-interpolation-filters="sRGB">
<feFlood flood-opacity="0" result="BackgroundImageFix"/>
<feColorMatrix in="SourceAlpha" type="matrix" values="0 0 0 0 0 0 0 0 0 0 0 0 0 0 0 0 0 0 127 0"/>
<feOffset dy="1"/>
<feGaussianBlur stdDeviation="0.5"/>
<feColorMatrix type="matrix" values="0 0 0 0 0 0 0 0 0 0 0 0 0 0 0 0 0 0 0.15 0"/>
<feBlend mode="normal" in2="BackgroundImageFix" result="effect1_dropShadow"/>
<feBlend mode="normal" in="SourceGraphic" in2="effect1_dropShadow" result="shape"/>
</filter>
<filter id="filter7_d" x="282.195" y="270.101" width="25.67" height="34.535" filterUnits="userSpaceOnUse" color-interpolation-filters="sRGB">
<feFlood flood-opacity="0" result="BackgroundImageFix"/>
<feColorMatrix in="SourceAlpha" type="matrix" values="0 0 0 0 0 0 0 0 0 0 0 0 0 0 0 0 0 0 127 0"/>
<feOffset dy="1"/>
<feGaussianBlur stdDeviation="0.5"/>
<feColorMatrix type="matrix" values="0 0 0 0 0 0 0 0 0 0 0 0 0 0 0 0 0 0 0.15 0"/>
<feBlend mode="normal" in2="BackgroundImageFix" result="effect1_dropShadow"/>
<feBlend mode="normal" in="SourceGraphic" in2="effect1_dropShadow" result="shape"/>
</filter>
<filter id="filter8_d" x="56" y="191.425" width="55" height="58.4839" filterUnits="userSpaceOnUse" color-interpolation-filters="sRGB">
<feFlood flood-opacity="0" result="BackgroundImageFix"/>
<feColorMatrix in="SourceAlpha" type="matrix" values="0 0 0 0 0 0 0 0 0 0 0 0 0 0 0 0 0 0 127 0"/>
<feOffset dy="1"/>
<feGaussianBlur stdDeviation="0.5"/>
<feColorMatrix type="matrix" values="0 0 0 0 0 0 0 0 0 0 0 0 0 0 0 0 0 0 0.15 0"/>
<feBlend mode="normal" in2="BackgroundImageFix" result="effect1_dropShadow"/>
<feBlend mode="normal" in="SourceGraphic" in2="effect1_dropShadow" result="shape"/>
</filter>
<filter id="filter9_d" x="67.7197" y="203.163" width="30.8329" height="34.5913" filterUnits="userSpaceOnUse" color-interpolation-filters="sRGB">
<feFlood flood-opacity="0" result="BackgroundImageFix"/>
<feColorMatrix in="SourceAlpha" type="matrix" values="0 0 0 0 0 0 0 0 0 0 0 0 0 0 0 0 0 0 127 0"/>
<feOffset dy="1"/>
<feGaussianBlur stdDeviation="0.5"/>
<feColorMatrix type="matrix" values="0 0 0 0 0 0 0 0 0 0 0 0 0 0 0 0 0 0 0.15 0"/>
<feBlend mode="normal" in2="BackgroundImageFix" result="effect1_dropShadow"/>
<feBlend mode="normal" in="SourceGraphic" in2="effect1_dropShadow" result="shape"/>
</filter>
<filter id="filter10_d" x="56" y="191.425" width="55" height="58.4839" filterUnits="userSpaceOnUse" color-interpolation-filters="sRGB">
<feFlood flood-opacity="0" result="BackgroundImageFix"/>
<feColorMatrix in="SourceAlpha" type="matrix" values="0 0 0 0 0 0 0 0 0 0 0 0 0 0 0 0 0 0 127 0"/>
<feOffset dy="1"/>
<feGaussianBlur stdDeviation="0.5"/>
<feColorMatrix type="matrix" values="0 0 0 0 0 0 0 0 0 0 0 0 0 0 0 0 0 0 0.15 0"/>
<feBlend mode="normal" in2="BackgroundImageFix" result="effect1_dropShadow"/>
<feBlend mode="normal" in="SourceGraphic" in2="effect1_dropShadow" result="shape"/>
</filter>
<filter id="filter11_d" x="67.7197" y="203.163" width="30.8329" height="34.5913" filterUnits="userSpaceOnUse" color-interpolation-filters="sRGB">
<feFlood flood-opacity="0" result="BackgroundImageFix"/>
<feColorMatrix in="SourceAlpha" type="matrix" values="0 0 0 0 0 0 0 0 0 0 0 0 0 0 0 0 0 0 127 0"/>
<feOffset dy="1"/>
<feGaussianBlur stdDeviation="0.5"/>
<feColorMatrix type="matrix" values="0 0 0 0 0 0 0 0 0 0 0 0 0 0 0 0 0 0 0.15 0"/>
<feBlend mode="normal" in2="BackgroundImageFix" result="effect1_dropShadow"/>
<feBlend mode="normal" in="SourceGraphic" in2="effect1_dropShadow" result="shape"/>
</filter>
<filter id="filter12_d" x="170" y="191.425" width="55" height="58.4839" filterUnits="userSpaceOnUse" color-interpolation-filters="sRGB">
<feFlood flood-opacity="0" result="BackgroundImageFix"/>
<feColorMatrix in="SourceAlpha" type="matrix" values="0 0 0 0 0 0 0 0 0 0 0 0 0 0 0 0 0 0 127 0"/>
<feOffset dy="1"/>
<feGaussianBlur stdDeviation="0.5"/>
<feColorMatrix type="matrix" values="0 0 0 0 0 0 0 0 0 0 0 0 0 0 0 0 0 0 0.15 0"/>
<feBlend mode="normal" in2="BackgroundImageFix" result="effect1_dropShadow"/>
<feBlend mode="normal" in="SourceGraphic" in2="effect1_dropShadow" result="shape"/>
</filter>
<filter id="filter13_d" x="186.961" y="203.358" width="24.1232" height="34.034" filterUnits="userSpaceOnUse" color-interpolation-filters="sRGB">
<feFlood flood-opacity="0" result="BackgroundImageFix"/>
<feColorMatrix in="SourceAlpha" type="matrix" values="0 0 0 0 0 0 0 0 0 0 0 0 0 0 0 0 0 0 127 0"/>
<feOffset dy="1"/>
<feGaussianBlur stdDeviation="0.5"/>
<feColorMatrix type="matrix" values="0 0 0 0 0 0 0 0 0 0 0 0 0 0 0 0 0 0 0.15 0"/>
<feBlend mode="normal" in2="BackgroundImageFix" result="effect1_dropShadow"/>
<feBlend mode="normal" in="SourceGraphic" in2="effect1_dropShadow" result="shape"/>
</filter>
<filter id="filter14_d" x="59" y="122.425" width="55" height="58.4839" filterUnits="userSpaceOnUse" color-interpolation-filters="sRGB">
<feFlood flood-opacity="0" result="BackgroundImageFix"/>
<feColorMatrix in="SourceAlpha" type="matrix" values="0 0 0 0 0 0 0 0 0 0 0 0 0 0 0 0 0 0 127 0"/>
<feOffset dy="1"/>
<feGaussianBlur stdDeviation="0.5"/>
<feColorMatrix type="matrix" values="0 0 0 0 0 0 0 0 0 0 0 0 0 0 0 0 0 0 0.15 0"/>
<feBlend mode="normal" in2="BackgroundImageFix" result="effect1_dropShadow"/>
<feBlend mode="normal" in="SourceGraphic" in2="effect1_dropShadow" result="shape"/>
</filter>
<filter id="filter15_d" x="72.0088" y="134.443" width="29.978" height="34.5809" filterUnits="userSpaceOnUse" color-interpolation-filters="sRGB">
<feFlood flood-opacity="0" result="BackgroundImageFix"/>
<feColorMatrix in="SourceAlpha" type="matrix" values="0 0 0 0 0 0 0 0 0 0 0 0 0 0 0 0 0 0 127 0"/>
<feOffset dy="1"/>
<feGaussianBlur stdDeviation="0.5"/>
<feColorMatrix type="matrix" values="0 0 0 0 0 0 0 0 0 0 0 0 0 0 0 0 0 0 0.15 0"/>
<feBlend mode="normal" in2="BackgroundImageFix" result="effect1_dropShadow"/>
<feBlend mode="normal" in="SourceGraphic" in2="effect1_dropShadow" result="shape"/>
</filter>
<filter id="filter16_d" x="239.619" y="98.1914" width="69.2006" height="67.3036" filterUnits="userSpaceOnUse" color-interpolation-filters="sRGB">
<feFlood flood-opacity="0" result="BackgroundImageFix"/>
<feColorMatrix in="SourceAlpha" type="matrix" values="0 0 0 0 0 0 0 0 0 0 0 0 0 0 0 0 0 0 127 0"/>
<feOffset dy="1"/>
<feGaussianBlur stdDeviation="0.5"/>
<feColorMatrix type="matrix" values="0 0 0 0 0 0 0 0 0 0 0 0 0 0 0 0 0 0 0.15 0"/>
<feBlend mode="normal" in2="BackgroundImageFix" result="effect1_dropShadow"/>
<feBlend mode="normal" in="SourceGraphic" in2="effect1_dropShadow" result="shape"/>
</filter>
<filter id="filter17_d" x="259.662" y="117.772" width="28.0937" height="35.4849" filterUnits="userSpaceOnUse" color-interpolation-filters="sRGB">
<feFlood flood-opacity="0" result="BackgroundImageFix"/>
<feColorMatrix in="SourceAlpha" type="matrix" values="0 0 0 0 0 0 0 0 0 0 0 0 0 0 0 0 0 0 127 0"/>
<feOffset dy="1"/>
<feGaussianBlur stdDeviation="0.5"/>
<feColorMatrix type="matrix" values="0 0 0 0 0 0 0 0 0 0 0 0 0 0 0 0 0 0 0.15 0"/>
<feBlend mode="normal" in2="BackgroundImageFix" result="effect1_dropShadow"/>
<feBlend mode="normal" in="SourceGraphic" in2="effect1_dropShadow" result="shape"/>
</filter>
<filter id="filter18_d" x="96" y="52.4253" width="55" height="58.4839" filterUnits="userSpaceOnUse" color-interpolation-filters="sRGB">
<feFlood flood-opacity="0" result="BackgroundImageFix"/>
<feColorMatrix in="SourceAlpha" type="matrix" values="0 0 0 0 0 0 0 0 0 0 0 0 0 0 0 0 0 0 127 0"/>
<feOffset dy="1"/>
<feGaussianBlur stdDeviation="0.5"/>
<feColorMatrix type="matrix" values="0 0 0 0 0 0 0 0 0 0 0 0 0 0 0 0 0 0 0.15 0"/>
<feBlend mode="normal" in2="BackgroundImageFix" result="effect1_dropShadow"/>
<feBlend mode="normal" in="SourceGraphic" in2="effect1_dropShadow" result="shape"/>
</filter>
<filter id="filter19_d" x="111.383" y="64.906" width="26.2342" height="34.9431" filterUnits="userSpaceOnUse" color-interpolation-filters="sRGB">
<feFlood flood-opacity="0" result="BackgroundImageFix"/>
<feColorMatrix in="SourceAlpha" type="matrix" values="0 0 0 0 0 0 0 0 0 0 0 0 0 0 0 0 0 0 127 0"/>
<feOffset dy="1"/>
<feGaussianBlur stdDeviation="0.5"/>
<feColorMatrix type="matrix" values="0 0 0 0 0 0 0 0 0 0 0 0 0 0 0 0 0 0 0.15 0"/>
<feBlend mode="normal" in2="BackgroundImageFix" result="effect1_dropShadow"/>
<feBlend mode="normal" in="SourceGraphic" in2="effect1_dropShadow" result="shape"/>
</filter>
</defs>
</svg>
