<svg width="1907" height="972" viewBox="0 0 1907 972" fill="none" xmlns="http://www.w3.org/2000/svg">
<g clip-path="url(#clip0)">
<path d="M1728.87 287.79L1731.03 168.884H1750.23L1752.39 287.79H1728.87Z" fill="#271648" stroke="#271648" stroke-width="3"/>
<path d="M1738.42 280.284H1755.35V301.665H1738.42V280.284Z" fill="#271648" stroke="#271648" stroke-width="3"/>
<path d="M1728.26 301.665L1725.35 280.284H1738.74V301.665H1728.26Z" fill="#271648" stroke="#271648" stroke-width="3"/>
<path d="M1764.21 310.242C1764.21 318.955 1763.49 324.694 1762.28 328.432C1761.08 332.117 1759.46 333.678 1757.7 334.37C1755.8 335.116 1753.42 334.998 1750.36 334.579C1749.74 334.496 1749.1 334.4 1748.44 334.301C1745.94 333.927 1743.13 333.507 1740.24 333.507C1737.35 333.507 1734.54 333.927 1732.04 334.301C1731.38 334.4 1730.74 334.496 1730.12 334.579C1727.06 334.998 1724.68 335.116 1722.78 334.37C1721.02 333.678 1719.4 332.117 1718.2 328.432C1716.99 324.694 1716.27 318.955 1716.27 310.242C1716.27 306.718 1718.62 303.421 1722.98 300.924C1727.31 298.439 1733.41 296.908 1740.24 296.908C1747.07 296.908 1753.17 298.439 1757.5 300.924C1761.86 303.421 1764.21 306.718 1764.21 310.242Z" fill="#271648" stroke="#271648" stroke-width="3"/>
<path d="M1775.28 329.208C1775.28 334.085 1771.74 338.808 1765.34 342.397C1758.99 345.96 1750.12 348.211 1740.24 348.211C1730.36 348.211 1721.49 345.96 1715.14 342.397C1708.74 338.808 1705.2 334.085 1705.2 329.208C1705.2 324.331 1708.74 319.608 1715.14 316.019C1721.49 312.457 1730.36 310.206 1740.24 310.206C1750.12 310.206 1758.99 312.457 1765.34 316.019C1771.74 319.608 1775.28 324.331 1775.28 329.208Z" fill="#271648" stroke="#271648" stroke-width="3"/>
<path d="M1779.71 337.951C1779.71 346.189 1778.56 351.291 1776.7 354.409C1774.91 357.401 1772.38 358.713 1769.02 359.135C1765.55 359.573 1761.35 359.039 1756.4 358.342C1756.13 358.304 1755.85 358.266 1755.58 358.227C1750.91 357.567 1745.7 356.831 1740.24 356.831C1734.78 356.831 1729.57 357.567 1724.9 358.227C1724.62 358.266 1724.35 358.304 1724.08 358.342C1719.13 359.039 1714.93 359.573 1711.46 359.135C1708.1 358.713 1705.57 357.401 1703.78 354.409C1701.92 351.291 1700.77 346.189 1700.77 337.951C1700.77 333.202 1704.68 328.494 1711.94 324.884C1719.1 321.32 1729.11 319.072 1740.24 319.072C1751.37 319.072 1761.38 321.32 1768.54 324.884C1775.8 328.494 1779.71 333.202 1779.71 337.951Z" fill="#271648" stroke="#271648" stroke-width="3"/>
<path d="M1790.89 962.171C1790.84 962.089 1790.79 962.005 1790.73 961.918C1789.22 959.496 1787.19 955.115 1784.85 947.139C1780.17 931.184 1774.21 900.578 1768.95 841.838C1763.68 783.08 1759.12 661.972 1755.86 555.603C1754.24 502.408 1752.94 452.883 1752.05 416.657C1751.6 398.543 1751.26 383.755 1751.03 373.494C1750.91 368.364 1750.82 364.366 1750.76 361.65C1750.74 360.538 1750.72 359.64 1750.7 358.969H1739.28V962.171H1790.89Z" fill="#271648" stroke="#271648" stroke-width="3"/>
<path d="M1688.35 962.171C1688.41 962.089 1688.46 962.005 1688.51 961.918C1690.02 959.496 1692.06 955.115 1694.4 947.139C1699.08 931.184 1705.04 900.578 1710.3 841.838C1715.56 783.082 1720.41 661.977 1723.94 555.607C1725.7 502.412 1727.14 452.887 1728.13 416.661C1728.63 398.548 1729.02 383.759 1729.28 373.498C1729.41 368.368 1729.51 364.37 1729.58 361.654C1729.61 360.54 1729.63 359.641 1729.65 358.969H1739.97V962.171H1688.35Z" fill="#271648" stroke="#271648" stroke-width="3"/>
<path d="M1779.71 354.698C1779.71 359.486 1775.79 364.223 1768.54 367.853C1761.37 371.439 1751.37 373.7 1740.24 373.7C1729.11 373.7 1719.11 371.439 1711.94 367.853C1704.69 364.223 1700.77 359.486 1700.77 354.698C1700.77 349.91 1704.69 345.172 1711.94 341.542C1719.11 337.956 1729.11 335.695 1740.24 335.695C1751.37 335.695 1761.37 337.956 1768.54 341.542C1775.79 345.172 1779.71 349.91 1779.71 354.698Z" fill="#271648" stroke="#271648" stroke-width="3"/>
<path d="M1779.71 362.455C1779.71 367.243 1775.79 371.981 1768.54 375.611C1761.37 379.197 1751.37 381.458 1740.24 381.458C1729.11 381.458 1719.11 379.197 1711.94 375.611C1704.69 371.981 1700.77 367.243 1700.77 362.455C1700.77 357.667 1704.69 352.93 1711.94 349.3C1719.11 345.714 1729.11 343.453 1740.24 343.453C1751.37 343.453 1761.37 345.714 1768.54 349.3C1775.79 352.93 1779.71 357.667 1779.71 362.455Z" fill="#271648" stroke="#271648" stroke-width="3"/>
<path d="M1733.29 155.077L1736.88 87.6538H1745.11L1748.66 155.077C1748.07 155.183 1747.33 155.312 1746.52 155.442C1744.59 155.75 1742.39 156.038 1740.98 156.038C1739.56 156.038 1737.36 155.75 1735.43 155.442C1734.62 155.312 1733.88 155.183 1733.29 155.077Z" fill="#271648" stroke="#271648" stroke-width="3"/>
<path d="M1735.8 88.0337L1737.14 55.6538H1744.85L1746.19 88.0337C1746.19 88.2041 1746.06 88.3461 1745.89 88.3461H1736.1C1735.93 88.3461 1735.79 88.2041 1735.8 88.0337Z" fill="#271648" stroke="#271648" stroke-width="3"/>
<path d="M1735.84 56.0277L1739.19 1.5H1742.79L1746.15 56.0277C1746.16 56.2003 1746.02 56.3462 1745.85 56.3462H1736.14C1735.97 56.3462 1735.83 56.2003 1735.84 56.0277Z" fill="#271648" stroke="#271648" stroke-width="3"/>
<path d="M1757.34 162.462C1757.34 158.684 1756.85 156.559 1756.17 155.386C1755.85 154.833 1755.5 154.504 1755.12 154.293C1754.73 154.074 1754.24 153.936 1753.59 153.889C1752.23 153.79 1750.55 154.099 1748.34 154.502L1748.31 154.508C1746.17 154.899 1743.67 155.347 1740.99 155.347C1738.32 155.347 1735.82 154.899 1733.68 154.508L1733.65 154.502C1731.44 154.099 1729.76 153.79 1728.4 153.889C1727.75 153.936 1727.26 154.074 1726.87 154.293C1726.49 154.504 1726.14 154.833 1725.82 155.386C1725.14 156.559 1724.65 158.684 1724.65 162.462C1724.65 164.268 1726.03 166.33 1729.03 168.028C1731.96 169.692 1736.16 170.808 1740.99 170.808C1745.83 170.808 1750.02 169.692 1752.96 168.028C1755.96 166.33 1757.34 164.268 1757.34 162.462Z" fill="#271648" stroke="#271648" stroke-width="3"/>
<path d="M1834.42 671.654H1905.27V970.193H1834.42V671.654Z" fill="#271648" stroke="#271648" stroke-width="3"/>
<path d="M1401.5 711.5H1471.5V970.5H1401.5V711.5Z" fill="#271648" stroke="#271648" stroke-width="3"/>
<path d="M187.5 731.5H251.5V970.5H187.5V731.5Z" fill="#271648" stroke="#271648" stroke-width="3"/>
<path d="M314.5 804.5H391.5V970.5H314.5V804.5Z" fill="#271648" stroke="#271648" stroke-width="3"/>
<path d="M328.5 781.5H375.5V805.5H328.5V781.5Z" fill="#271648" stroke="#271648" stroke-width="3"/>
<path d="M1633.5 599.5H1672.5V970.5H1633.5V599.5Z" fill="#271648" stroke="#271648" stroke-width="3"/>
<path d="M1593.5 599.5H1634.5V970.5H1593.5V599.5Z" fill="#271648" stroke="#271648" stroke-width="3"/>
<path d="M1498.5 655.5H1534.5V970.5H1498.5V655.5Z" fill="#271648" stroke="#271648" stroke-width="3"/>
<path d="M1564.5 655.5H1591.5V970.5H1564.5V655.5Z" fill="#271648" stroke="#271648" stroke-width="3"/>
<path d="M1533.5 655.5H1565.5V970.5H1533.5V655.5Z" fill="#271648" stroke="#271648" stroke-width="3"/>
<path d="M1556.5 637.5H1574.5V656.5H1556.5V637.5Z" fill="#271648" stroke="#271648" stroke-width="3"/>
<path d="M1515.5 637.5H1557.5V656.5H1515.5V637.5Z" fill="#271648" stroke="#271648" stroke-width="3"/>
<path d="M1320.5 768.5H1405.5V970.5H1320.5V768.5Z" fill="#271648" stroke="#271648" stroke-width="3"/>
<path d="M1294.5 768.5H1321.5V970.5H1294.5V768.5Z" fill="#271648" stroke="#271648" stroke-width="3"/>
<path d="M1387.5 751.704V769.5H1315.5V751.704C1315.89 751.569 1316.41 751.398 1317.04 751.201C1318.7 750.683 1321.17 749.988 1324.36 749.292C1330.75 747.898 1340.01 746.5 1351.5 746.5C1362.99 746.5 1372.25 747.898 1378.64 749.292C1381.83 749.988 1384.3 750.683 1385.96 751.201C1386.59 751.398 1387.11 751.569 1387.5 751.704Z" fill="#271648" stroke="#271648" stroke-width="3"/>
<path d="M1413.5 711.5H1426.5V698.5H1413.5V711.5Z" fill="#271648" stroke="#271648" stroke-width="3"/>
<path d="M1425.5 711.5H1438.5V698.5H1425.5V711.5Z" fill="#271648" stroke="#271648" stroke-width="3"/>
<path d="M1038.5 707.5H1111.5V1000.5H1038.5V707.5Z" fill="#271648" stroke="#271648" stroke-width="3"/>
<path d="M1019.5 667.5H1085.5V689.5H1019.5V667.5Z" fill="#271648" stroke="#271648" stroke-width="3"/>
<path d="M1048.5 655.5H1097.5V689.5H1048.5V655.5Z" fill="#271648" stroke="#271648" stroke-width="3"/>
<path d="M983.5 707.5H1037.5V1000.5H983.5V707.5Z" fill="#271648" stroke="#271648" stroke-width="3"/>
<mask id="path-36-inside-1" fill="white">
<path fill-rule="evenodd" clip-rule="evenodd" d="M1113.3 650.155H1094.76V687.078H995.409V709.232H1113.3L1113.3 688.309V650.155Z"/>
</mask>
<path fill-rule="evenodd" clip-rule="evenodd" d="M1113.3 650.155H1094.76V687.078H995.409V709.232H1113.3L1113.3 688.309V650.155Z" fill="#271648"/>
<path d="M1094.76 650.155V647.155H1091.76V650.155H1094.76ZM1113.3 650.155H1116.3V647.155H1113.3V650.155ZM1094.76 687.078V690.078H1097.76V687.078H1094.76ZM995.409 687.078V684.078H992.409V687.078H995.409ZM995.409 709.232H992.409V712.232H995.409V709.232ZM1113.3 709.232V712.232H1116.3L1116.3 709.232L1113.3 709.232ZM1113.3 688.309L1116.3 688.309V688.309H1113.3ZM1094.76 653.155H1113.3V647.155H1094.76V653.155ZM1097.76 687.078V650.155H1091.76V687.078H1097.76ZM1094.76 684.078H995.409V690.078H1094.76V684.078ZM992.409 687.078V709.232H998.409V687.078H992.409ZM995.409 712.232H1113.3V706.232H995.409V712.232ZM1116.3 709.232L1116.3 688.309L1110.3 688.309L1110.3 709.232L1116.3 709.232ZM1110.3 650.155V688.309H1116.3V650.155H1110.3Z" fill="#271648" mask="url(#path-36-inside-1)"/>
<path d="M1242.5 637.5H1292.5V970.5H1242.5V637.5Z" fill="#271648" stroke="#271648" stroke-width="3"/>
<path d="M1173.5 637.5H1244.5V970.5H1173.5V637.5Z" fill="#271648" stroke="#271648" stroke-width="3"/>
<mask id="path-40-inside-2" fill="white">
<path fill-rule="evenodd" clip-rule="evenodd" d="M1266.57 606.309H1236.96V622.491L1188.41 627.295V649.385H1266.57V619.563L1266.57 619.563V606.309Z"/>
</mask>
<path fill-rule="evenodd" clip-rule="evenodd" d="M1266.57 606.309H1236.96V622.491L1188.41 627.295V649.385H1266.57V619.563L1266.57 619.563V606.309Z" fill="#271648"/>
<path d="M1236.96 606.309V603.309H1233.96V606.309H1236.96ZM1266.57 606.309H1269.57V603.309H1266.57V606.309ZM1236.96 622.491L1237.26 625.477L1239.96 625.209V622.491H1236.96ZM1188.41 627.295L1188.12 624.309L1185.41 624.577V627.295H1188.41ZM1188.41 649.385H1185.41V652.385H1188.41V649.385ZM1266.57 649.385V652.385H1269.57V649.385H1266.57ZM1266.57 619.563H1269.57V616.254L1266.28 616.577L1266.57 619.563ZM1266.57 619.563H1263.57V622.872L1266.86 622.548L1266.57 619.563ZM1236.96 609.309H1266.57V603.309H1236.96V609.309ZM1239.96 622.491V606.309H1233.96V622.491H1239.96ZM1236.67 619.506L1188.12 624.309L1188.71 630.28L1237.26 625.477L1236.67 619.506ZM1185.41 627.295V649.385H1191.41V627.295H1185.41ZM1188.41 652.385H1266.57V646.385H1188.41V652.385ZM1269.57 649.385V619.563H1263.57V649.385H1269.57ZM1266.28 616.577L1266.27 616.577L1266.86 622.548L1266.86 622.548L1266.28 616.577ZM1263.57 606.309V619.563H1269.57V606.309H1263.57Z" fill="#271648" mask="url(#path-40-inside-2)"/>
<path d="M1125.5 744.5H1194.5V966.5H1125.5V744.5Z" fill="#271648" stroke="#271648" stroke-width="3"/>
<path d="M1125.5 744.5H1194.5V720.5H1125.5V744.5Z" fill="#271648" stroke="#271648" stroke-width="3"/>
<path d="M1080.5 792.5H1149.5V966.5H1080.5V792.5Z" fill="#271648" stroke="#271648" stroke-width="3"/>
<path d="M1216.5 827.5H1243.01L1247.26 856.5H1216.5V827.5Z" fill="#271648" stroke="#271648" stroke-width="3"/>
<path d="M1206.5 856.5H1329.03L1410.09 970.5H1206.5V856.5Z" fill="#271648" stroke="#271648" stroke-width="3"/>
<path d="M1206.5 856.5H1254.59L1315.5 970.5H1206.5V856.5Z" fill="#271648" stroke="#271648" stroke-width="3"/>
<path d="M1018.5 889.5H1226.57L1272.43 970.5H1018.5V889.5Z" fill="#271648" stroke="#271648" stroke-width="3"/>
<path d="M927.5 827.5H1037.5V856.5H927.5V827.5Z" fill="#271648" stroke="#271648" stroke-width="3"/>
<path d="M887.5 856.5H1069.84L1125.6 970.5H887.5V856.5Z" fill="#271648" stroke="#271648" stroke-width="3"/>
<path d="M884.5 856.5H927.813L993.406 970.5H884.5V856.5Z" fill="#271648" stroke="#271648" stroke-width="3"/>
<path d="M927.5 827.5H963.5V856.5H927.5V827.5Z" fill="#271648" stroke="#271648" stroke-width="3"/>
<path d="M1455.5 772.5H1525.5V970.5H1455.5V772.5Z" fill="#271648" stroke="#271648" stroke-width="3"/>
<path d="M41.175 724.398V710.5H76.6V723.782V724.617L77.3098 725.057L92.5 734.472V751.181V970.5H-10.5V752.383H23.775H25.275V750.883V733.329L40.3497 725.738L41.175 725.322V724.398Z" fill="#271648" stroke="#271648" stroke-width="3"/>
<path d="M160.5 731.5H188.5V970.5H160.5V731.5Z" fill="#271648" stroke="#271648" stroke-width="3"/>
<path d="M86.5 807.5H226.5V970.5H86.5V807.5Z" fill="#271648" stroke="#271648" stroke-width="3"/>
<path d="M225.5 807.5H278.5V970.5H225.5V807.5Z" fill="#271648" stroke="#271648" stroke-width="3"/>
<path d="M1803.65 671.654H1835.12V970.193H1803.65V671.654Z" fill="#271648" stroke="#271648" stroke-width="3"/>
<path d="M296.461 921.071H333.5V979.5H235.5V896.5H294.961V919.571V921.071H296.461Z" fill="#271648" stroke="#271648" stroke-width="3"/>
<path d="M993.5 887.5H1209.5V970.5H993.5V887.5Z" fill="#271648" stroke="#271648" stroke-width="3"/>
<path opacity="0.4" fill-rule="evenodd" clip-rule="evenodd" d="M1207.04 889.231H1004.37H996.425V896.616V968H1004.37V896.616H1207.04V889.231Z" fill="#271648"/>
<path d="M988.5 887.5V869.5H1004.5V887.5H988.5Z" fill="#271648" stroke="#271648" stroke-width="3"/>
<path d="M1003.5 887.5V869.5H1041.5V887.5H1003.5Z" fill="#271648" stroke="#271648" stroke-width="3"/>
<path d="M799.5 887.5H922.5V970.5H799.5V887.5Z" fill="#271648" stroke="#271648" stroke-width="3"/>
<path d="M921.5 887.5H951.5V970.5H921.5V887.5Z" fill="#271648" stroke="#271648" stroke-width="3"/>
<path d="M799.5 887.5V873.5H875.5V887.5H799.5Z" fill="#271648" stroke="#271648" stroke-width="3"/>
<path d="M874.5 887.5V873.5H907.5V887.5H874.5Z" fill="#271648" stroke="#271648" stroke-width="3"/>
<path d="M307.5 979.5V952.5H362.5V979.5H307.5Z" fill="#271648" stroke="#271648" stroke-width="3"/>
<path d="M828.5 970.5V943.5H875.5V970.5H828.5Z" fill="#271648" stroke="#271648" stroke-width="3"/>
<path d="M1655 806.769H1746.08V971.692H1655V806.769Z" fill="#271648"/>
<path d="M1724.88 808.269H1810.5V970.192H1724.88V808.269Z" fill="#271648" stroke="#271648" stroke-width="3"/>
<path opacity="0.4" d="M44 713H74V718H44V713Z" fill="#271648"/>
<path d="M1767.96 789.808H1804.35V808.962H1767.96V789.808Z" fill="#271648" stroke="#271648" stroke-width="3"/>
<path d="M1657.19 789.808H1768.65V808.962H1657.19V789.808Z" fill="#271648" stroke="#271648" stroke-width="3"/>
<path d="M675 843H714V857H675V843Z" fill="#271648"/>
<path d="M435 843H495V857H435V843Z" fill="#271648"/>
<path d="M675 843H696V857H675V843Z" fill="#271648"/>
<path d="M435 843H467V857H435V843Z" fill="#271648"/>
<path d="M654 854H742V880H654V854Z" fill="#271648"/>
<path d="M654 854H678.138L682 880H654V854Z" fill="#271648"/>
<path d="M654 877H755.4L823 972H654V877Z" fill="#271648"/>
<path d="M654 877H694.66L745 972H654V877Z" fill="#271648"/>
<path d="M501 904H672.29L711 972H501V904Z" fill="#271648"/>
<path d="M419 854H510V880H419V854Z" fill="#271648"/>
<path d="M394 877H544.419L591 972H394V877Z" fill="#271648"/>
<path d="M392 877H428.787L483 972H392V877Z" fill="#271648"/>
<path d="M419 854H450V880H419V854Z" fill="#271648"/>
</g>
<defs>
<clipPath id="clip0">
<rect width="1907" height="972" fill="white"/>
</clipPath>
</defs>
</svg>
